<svg width="500" height="115" viewBox="0 0 500 115" fill="none" xmlns="http://www.w3.org/2000/svg">
<path d="M32.24 77.4C25.8933 77.4 20.3733 76.2533 15.68 73.96C10.9867 71.6133 7.38667 68.3067 4.88 64.04C2.37333 59.7733 1.12 54.8133 1.12 49.16C1.12 41.32 2.58667 34.36 5.52 28.28C8.50667 22.2 12.5333 17.5067 17.6 14.2C22.6667 10.84 28.2933 9.16 34.48 9.16C40.24 9.16 44.6133 10.6533 47.6 13.64C50.5867 16.5733 52.08 20.4667 52.08 25.32C52.08 28.5733 51.4933 31.1867 50.32 33.16C49.2 35.1333 47.5733 36.12 45.44 36.12C43.9467 36.12 42.7733 35.7733 41.92 35.08C41.0667 34.3867 40.64 33.3733 40.64 32.04C40.64 31.56 40.7467 30.68 40.96 29.4C41.28 27.8 41.44 26.52 41.44 25.56C41.44 20.7067 38.8533 18.28 33.68 18.28C30.16 18.28 26.8 19.4267 23.6 21.72C20.4 24.0133 17.8133 27.4 15.84 31.88C13.8667 36.3067 12.88 41.5867 12.88 47.72C12.88 54.12 14.6667 59.08 18.24 62.6C21.8133 66.0667 27.0933 67.8 34.08 67.8C37.5467 67.8 41.04 67.3733 44.56 66.52C48.1333 65.6133 52.08 64.2533 56.4 62.44C57.2 62.12 57.8667 61.96 58.4 61.96C59.2533 61.96 59.8933 62.28 60.32 62.92C60.7467 63.56 60.96 64.3867 60.96 65.4C60.96 68.6533 59.2 71.0533 55.68 72.6C51.8933 74.2533 47.9467 75.48 43.84 76.28C39.7867 77.0267 35.92 77.4 32.24 77.4ZM99.0838 59.16C99.7771 59.16 100.31 59.48 100.684 60.12C101.11 60.76 101.324 61.64 101.324 62.76C101.324 64.8933 100.817 66.5467 99.8038 67.72C97.3504 70.5467 94.8171 72.8667 92.2038 74.68C89.6438 76.4933 86.7104 77.4 83.4038 77.4C80.6838 77.4 78.6304 76.6267 77.2438 75.08C75.8571 73.48 75.1638 71.1867 75.1638 68.2C75.1638 66.7067 75.5371 64.04 76.2838 60.2C76.9771 56.84 77.3238 54.52 77.3238 53.24C77.3238 52.3867 77.0304 51.96 76.4438 51.96C75.7504 51.96 74.7638 52.8667 73.4838 54.68C72.2038 56.44 70.9238 58.7867 69.6438 61.72C68.3638 64.6533 67.3238 67.7467 66.5238 71C65.5104 75.2667 63.0038 77.4 59.0038 77.4C57.4038 77.4 56.3371 76.84 55.8038 75.72C55.3238 74.5467 55.0838 72.4667 55.0838 69.48C55.0838 67.7733 55.1104 66.4133 55.1638 65.4L55.2438 59C55.2438 50.7867 56.0704 42.2267 57.7238 33.32C59.4304 24.4133 61.9104 16.9467 65.1638 10.92C68.4704 4.84 72.4171 1.8 77.0038 1.8C79.4571 1.8 81.4304 2.86666 82.9238 5C84.4704 7.08 85.2438 9.8 85.2438 13.16C85.2438 18.5467 83.6704 24.1467 80.5238 29.96C77.3771 35.72 72.2571 42.4667 65.1638 50.2C65.0038 52.9733 64.9238 55.8267 64.9238 58.76C66.6838 54.2267 68.6304 50.5467 70.7638 47.72C72.9504 44.84 75.0838 42.7867 77.1638 41.56C79.2971 40.3333 81.2438 39.72 83.0038 39.72C86.4704 39.72 88.2038 41.4533 88.2038 44.92C88.2038 47 87.6171 50.76 86.4438 56.2C85.4304 60.84 84.9238 63.9067 84.9238 65.4C84.9238 67.5333 85.6971 68.6 87.2438 68.6C88.3104 68.6 89.5638 67.96 91.0038 66.68C92.4971 65.3467 94.4704 63.2133 96.9238 60.28C97.5638 59.5333 98.2838 59.16 99.0838 59.16ZM75.3238 9.72C74.3638 9.72 73.2971 11.1067 72.1238 13.88C70.9504 16.6 69.8038 20.3067 68.6838 25C67.6171 29.64 66.7371 34.7067 66.0438 40.2C69.3504 36.3067 72.0704 32.0667 74.2038 27.48C76.3904 22.8933 77.4838 18.7333 77.4838 15C77.4838 13.2933 77.2971 11.9867 76.9238 11.08C76.5504 10.1733 76.0171 9.72 75.3238 9.72ZM104.68 77.4C101.373 77.4 98.7333 76.2 96.76 73.8C94.7867 71.4 93.8 68.2533 93.8 64.36C93.8 60.0933 94.7867 56.0667 96.76 52.28C98.7333 48.44 101.347 45.3733 104.6 43.08C107.907 40.7333 111.4 39.56 115.08 39.56C116.253 39.56 117.027 39.8 117.4 40.28C117.827 40.7067 118.173 41.5067 118.44 42.68C119.56 42.4667 120.733 42.36 121.96 42.36C124.573 42.36 125.88 43.2933 125.88 45.16C125.88 46.28 125.48 48.9467 124.68 53.16C123.453 59.2933 122.84 63.56 122.84 65.96C122.84 66.76 123.027 67.4 123.4 67.88C123.827 68.36 124.36 68.6 125 68.6C126.013 68.6 127.24 67.96 128.68 66.68C130.12 65.3467 132.067 63.2133 134.52 60.28C135.16 59.5333 135.88 59.16 136.68 59.16C137.373 59.16 137.907 59.48 138.28 60.12C138.707 60.76 138.92 61.64 138.92 62.76C138.92 64.8933 138.413 66.5467 137.4 67.72C135.213 70.44 132.893 72.7333 130.44 74.6C127.987 76.4667 125.613 77.4 123.32 77.4C121.56 77.4 119.933 76.8133 118.44 75.64C117 74.4133 115.907 72.76 115.16 70.68C112.387 75.16 108.893 77.4 104.68 77.4ZM107.56 69.32C108.733 69.32 109.853 68.6267 110.92 67.24C111.987 65.8533 112.76 64.0133 113.24 61.72L116.2 47C113.96 47.0533 111.88 47.9067 109.96 49.56C108.093 51.16 106.6 53.2933 105.48 55.96C104.36 58.6267 103.8 61.4533 103.8 64.44C103.8 66.0933 104.12 67.32 104.76 68.12C105.453 68.92 106.387 69.32 107.56 69.32ZM138.098 77.4C136.071 77.4 134.631 76.3333 133.778 74.2C132.978 72.0667 132.578 68.6533 132.578 63.96C132.578 57.0267 133.565 50.44 135.538 44.2C136.018 42.6533 136.791 41.5333 137.858 40.84C138.978 40.0933 140.525 39.72 142.498 39.72C143.565 39.72 144.311 39.8533 144.738 40.12C145.165 40.3867 145.378 40.8933 145.378 41.64C145.378 42.4933 144.978 44.4133 144.178 47.4C143.645 49.5333 143.218 51.4 142.898 53C142.578 54.6 142.311 56.5733 142.098 58.92C143.858 54.3333 145.831 50.6 148.018 47.72C150.205 44.84 152.338 42.7867 154.418 41.56C156.551 40.3333 158.498 39.72 160.258 39.72C163.725 39.72 165.458 41.4533 165.458 44.92C165.458 47 164.871 50.76 163.698 56.2C162.685 60.84 162.178 63.9067 162.178 65.4C162.178 67.5333 162.951 68.6 164.498 68.6C165.565 68.6 166.818 67.96 168.258 66.68C169.751 65.3467 171.725 63.2133 174.178 60.28C174.818 59.5333 175.538 59.16 176.338 59.16C177.031 59.16 177.565 59.48 177.938 60.12C178.365 60.76 178.578 61.64 178.578 62.76C178.578 64.8933 178.071 66.5467 177.058 67.72C174.765 70.5467 172.285 72.8667 169.618 74.68C167.005 76.4933 164.018 77.4 160.658 77.4C157.938 77.4 155.885 76.6267 154.498 75.08C153.111 73.48 152.418 71.1867 152.418 68.2C152.418 66.7067 152.791 64.04 153.538 60.2C154.231 56.84 154.578 54.52 154.578 53.24C154.578 52.3867 154.285 51.96 153.698 51.96C153.005 51.96 152.018 52.8667 150.738 54.68C149.511 56.44 148.231 58.7867 146.898 61.72C145.618 64.6533 144.578 67.7467 143.778 71C143.191 73.5067 142.498 75.2133 141.698 76.12C140.951 76.9733 139.751 77.4 138.098 77.4ZM217.546 59.16C218.239 59.16 218.772 59.48 219.146 60.12C219.572 60.76 219.786 61.64 219.786 62.76C219.786 64.8933 219.279 66.5467 218.266 67.72C216.079 70.3867 213.679 72.68 211.066 74.6C208.452 76.4667 205.866 77.4 203.306 77.4C199.252 77.4 196.159 75.0267 194.026 70.28C191.786 73.1067 189.812 75 188.106 75.96C186.452 76.92 184.506 77.4 182.266 77.4C179.012 77.4 176.319 76.2 174.186 73.8C172.106 71.3467 171.066 68.1733 171.066 64.28C171.066 60.0133 171.972 56.0667 173.786 52.44C175.599 48.76 178.079 45.7733 181.226 43.48C184.426 41.1333 187.999 39.7467 191.946 39.32C192.959 28.9733 194.879 20.1467 197.706 12.84C200.586 5.48 204.346 1.8 208.986 1.8C211.279 1.8 213.172 2.84 214.666 4.92C216.212 7 216.986 10.1467 216.986 14.36C216.986 20.3333 215.519 27.32 212.586 35.32C209.652 43.32 205.732 51.5333 200.826 59.96C201.039 63.0533 201.492 65.2667 202.186 66.6C202.932 67.9333 203.866 68.6 204.986 68.6C206.426 68.6 207.892 67.96 209.386 66.68C210.879 65.4 212.879 63.2667 215.386 60.28C216.026 59.5333 216.746 59.16 217.546 59.16ZM208.106 9.63999C207.092 9.63999 206.079 11.4533 205.066 15.08C204.052 18.6533 203.172 23.3467 202.426 29.16C201.732 34.9733 201.226 41.0533 200.906 47.4C206.879 34.3867 209.866 23.9333 209.866 16.04C209.866 14.0133 209.679 12.44 209.306 11.32C208.986 10.2 208.586 9.63999 208.106 9.63999ZM185.066 69.32C186.079 69.32 187.092 68.92 188.106 68.12C189.119 67.2667 190.399 65.72 191.946 63.48C191.412 60.6 191.146 57.3733 191.146 53.8C191.146 52.52 191.199 50.44 191.306 47.56C188.372 48.4667 185.919 50.44 183.946 53.48C182.026 56.4667 181.066 59.8 181.066 63.48C181.066 67.3733 182.399 69.32 185.066 69.32ZM218.958 77.4C216.931 77.4 215.491 76.3333 214.638 74.2C213.838 72.0667 213.438 68.6533 213.438 63.96C213.438 57.0267 214.424 50.44 216.398 44.2C216.878 42.6533 217.651 41.5333 218.718 40.84C219.838 40.0933 221.384 39.72 223.358 39.72C224.424 39.72 225.171 39.8533 225.598 40.12C226.024 40.3867 226.238 40.8933 226.238 41.64C226.238 42.4933 225.838 44.4133 225.038 47.4C224.504 49.5333 224.078 51.4 223.758 53C223.438 54.6 223.171 56.5733 222.958 58.92C224.718 54.3333 226.691 50.6 228.878 47.72C231.064 44.84 233.198 42.7867 235.278 41.56C237.411 40.3333 239.358 39.72 241.118 39.72C244.584 39.72 246.318 41.4533 246.318 44.92C246.318 45.6133 246.078 47.2933 245.598 49.96C245.171 52.0933 244.958 53.4267 244.958 53.96C244.958 55.8267 245.624 56.76 246.958 56.76C248.451 56.76 250.371 55.5867 252.718 53.24C253.411 52.5467 254.131 52.2 254.878 52.2C255.571 52.2 256.104 52.52 256.477 53.16C256.904 53.7467 257.118 54.5467 257.118 55.56C257.118 57.5333 256.584 59.08 255.518 60.2C254.024 61.7467 252.264 63.08 250.238 64.2C248.264 65.2667 246.158 65.8 243.918 65.8C241.091 65.8 238.931 65.08 237.438 63.64C235.998 62.2 235.278 60.2533 235.278 57.8C235.278 57 235.358 56.2 235.518 55.4C235.624 54.3333 235.678 53.6133 235.678 53.24C235.678 52.3867 235.384 51.96 234.798 51.96C233.998 51.96 232.931 52.8667 231.598 54.68C230.318 56.44 229.038 58.7867 227.758 61.72C226.478 64.6533 225.438 67.7467 224.638 71C224.051 73.5067 223.358 75.2133 222.558 76.12C221.811 76.9733 220.611 77.4 218.958 77.4ZM258.004 77.4C255.497 77.4 253.47 76.3867 251.924 74.36C250.43 72.28 249.684 69.4267 249.684 65.8C249.684 61.8 249.95 58.1467 250.484 54.84C251.017 51.48 251.897 47.9333 253.124 44.2C253.657 42.6 254.404 41.4533 255.364 40.76C256.324 40.0667 257.844 39.72 259.924 39.72C261.097 39.72 261.897 39.9067 262.324 40.28C262.804 40.6533 263.044 41.2133 263.044 41.96C263.044 42.3867 262.75 43.8267 262.164 46.28C261.63 48.2533 261.204 50.04 260.884 51.64C259.817 57.24 259.284 60.9733 259.284 62.84C259.284 63.96 259.417 64.76 259.684 65.24C259.95 65.6667 260.377 65.88 260.964 65.88C261.764 65.88 262.777 65.08 264.004 63.48C265.23 61.8267 266.51 59.3733 267.844 56.12C269.23 52.8133 270.537 48.84 271.764 44.2C272.19 42.6 272.83 41.4533 273.684 40.76C274.59 40.0667 275.924 39.72 277.684 39.72C278.857 39.72 279.684 40.04 280.164 40.68C280.697 41.2667 280.964 42.1733 280.964 43.4C280.964 44.7333 280.857 46.2267 280.644 47.88C280.43 49.48 280.19 51.1333 279.924 52.84C279.39 56.2533 278.964 59.3733 278.644 62.2C278.324 64.9733 278.164 68.1467 278.164 71.72C278.164 73.7467 277.737 75.2133 276.884 76.12C276.084 76.9733 274.75 77.4 272.884 77.4C270.91 77.4 269.524 76.8933 268.724 75.88C267.977 74.8133 267.604 72.7867 267.604 69.8C267.604 69.2133 267.657 67.9067 267.764 65.88C266.857 69.6133 265.497 72.4667 263.684 74.44C261.924 76.4133 260.03 77.4 258.004 77.4ZM373.253 25.8C373.253 30.3333 371.653 34.2533 368.453 37.56C365.253 40.8133 360.586 43.16 354.453 44.6C357.759 45.5067 360.266 47 361.973 49.08C363.679 51.1067 364.533 53.4533 364.533 56.12C364.533 60.3333 363.199 63.9867 360.533 67.08C357.919 70.1733 354.079 72.5733 349.012 74.28C343.946 75.9333 337.839 76.76 330.693 76.76C328.026 76.76 325.893 76.68 324.293 76.52C324.239 78.0133 323.599 79.1333 322.373 79.88C321.146 80.6267 319.573 81 317.653 81C315.733 81 314.399 80.5733 313.653 79.72C312.959 78.8667 312.666 77.6133 312.773 75.96C313.253 68.4933 314.186 60.68 315.572 52.52C316.959 44.3067 318.719 36.3867 320.853 28.76C321.226 27.4267 321.973 26.4933 323.093 25.96C324.213 25.4267 325.679 25.16 327.493 25.16C330.746 25.16 332.373 26.0667 332.373 27.88C332.373 28.6267 332.213 29.48 331.893 30.44C330.506 34.6 329.119 40.2533 327.733 47.4C326.346 54.4933 325.359 61.2667 324.773 67.72C327.333 67.9333 329.413 68.04 331.013 68.04C338.479 68.04 343.946 66.9733 347.413 64.84C350.933 62.6533 352.693 59.88 352.693 56.52C352.693 54.1733 351.679 52.2 349.653 50.6C347.679 49 344.346 48.12 339.653 47.96C338.586 47.9067 337.839 47.64 337.413 47.16C336.986 46.68 336.773 45.9067 336.773 44.84C336.773 43.2933 337.093 42.04 337.733 41.08C338.373 40.12 339.546 39.6133 341.253 39.56C345.039 39.4533 348.453 38.8933 351.493 37.88C354.586 36.8667 357.013 35.4533 358.773 33.64C360.533 31.7733 361.413 29.6133 361.413 27.16C361.413 24.0667 359.893 21.64 356.853 19.88C353.813 18.0667 349.146 17.16 342.853 17.16C337.146 17.16 331.626 17.9067 326.293 19.4C320.959 20.84 316.426 22.68 312.693 24.92C310.986 25.9333 309.546 26.44 308.373 26.44C307.413 26.44 306.666 26.12 306.133 25.48C305.653 24.7867 305.413 23.9333 305.413 22.92C305.413 21.5867 305.679 20.44 306.213 19.48C306.799 18.52 308.159 17.4267 310.293 16.2C314.773 13.64 320.026 11.64 326.053 10.2C332.079 8.76 338.239 8.04 344.533 8.04C354.186 8.04 361.386 9.66666 366.133 12.92C370.879 16.1733 373.253 20.4667 373.253 25.8ZM404.144 59.16C404.838 59.16 405.371 59.48 405.744 60.12C406.171 60.76 406.384 61.64 406.384 62.76C406.384 64.8933 405.878 66.5467 404.864 67.72C402.571 70.5467 400.064 72.8667 397.344 74.68C394.678 76.4933 391.638 77.4 388.224 77.4C383.531 77.4 380.038 75.2667 377.744 71C375.504 66.7333 374.384 61.2133 374.384 54.44C374.384 47.9333 375.211 40.52 376.864 32.2C378.571 23.88 381.051 16.7333 384.304 10.76C387.611 4.78666 391.531 1.8 396.064 1.8C398.624 1.8 400.624 3 402.064 5.4C403.558 7.74667 404.304 11.1333 404.304 15.56C404.304 21.9067 402.544 29.2667 399.024 37.64C395.504 46.0133 390.731 54.3067 384.704 62.52C385.078 64.7067 385.691 66.28 386.544 67.24C387.398 68.1467 388.518 68.6 389.904 68.6C392.091 68.6 394.011 67.9867 395.664 66.76C397.318 65.48 399.424 63.32 401.984 60.28C402.624 59.5333 403.344 59.16 404.144 59.16ZM394.304 9.72C393.078 9.72 391.691 11.9333 390.144 16.36C388.598 20.7867 387.238 26.28 386.064 32.84C384.891 39.4 384.251 45.6933 384.144 51.72C387.931 45.48 390.944 39.24 393.184 33C395.424 26.7067 396.544 20.9733 396.544 15.8C396.544 11.7467 395.798 9.72 394.304 9.72ZM440.718 52.44C441.411 52.44 441.945 52.7867 442.318 53.48C442.691 54.1733 442.878 55.0533 442.878 56.12C442.878 58.68 442.105 60.2 440.558 60.68C437.358 61.8 433.838 62.44 429.998 62.6C428.985 67.08 426.985 70.68 423.998 73.4C421.011 76.0667 417.625 77.4 413.838 77.4C410.638 77.4 407.891 76.6267 405.598 75.08C403.358 73.5333 401.651 71.48 400.478 68.92C399.305 66.36 398.718 63.5867 398.718 60.6C398.718 56.5467 399.491 52.9467 401.038 49.8C402.585 46.6 404.718 44.12 407.438 42.36C410.158 40.5467 413.171 39.64 416.478 39.64C420.531 39.64 423.785 41.0533 426.238 43.88C428.745 46.6533 430.211 50.0933 430.638 54.2C433.145 54.04 436.131 53.5067 439.598 52.6C440.025 52.4933 440.398 52.44 440.718 52.44ZM414.478 68.92C416.185 68.92 417.651 68.2267 418.878 66.84C420.158 65.4533 421.011 63.4533 421.438 60.84C419.785 59.72 418.505 58.2533 417.598 56.44C416.745 54.6267 416.318 52.7067 416.318 50.68C416.318 49.8267 416.398 48.9733 416.558 48.12H416.158C414.025 48.12 412.238 49.16 410.798 51.24C409.411 53.2667 408.718 56.1467 408.718 59.88C408.718 62.8133 409.278 65.0533 410.398 66.6C411.571 68.1467 412.931 68.92 414.478 68.92ZM463.132 42.36C464.465 42.36 465.399 42.5733 465.932 43C466.519 43.3733 466.812 44.1467 466.812 45.32C466.812 45.96 466.785 46.4667 466.732 46.84C466.519 48.4933 465.852 52.76 464.732 59.64C463.932 64.28 463.425 67.3467 463.212 68.84C461.185 82.6 458.439 93.4533 454.972 101.4C451.559 109.4 446.972 113.4 441.212 113.4C438.492 113.4 436.279 112.547 434.572 110.84C432.865 109.187 432.012 107 432.012 104.28C432.012 100.493 433.505 96.4133 436.492 92.04C439.479 87.72 445.079 82.3867 453.292 76.04L453.772 72.92C452.865 74.36 451.665 75.48 450.172 76.28C448.732 77.0267 447.292 77.4 445.852 77.4C442.545 77.4 439.905 76.2 437.932 73.8C435.959 71.4 434.972 68.2533 434.972 64.36C434.972 60.0933 435.959 56.0667 437.932 52.28C439.905 48.44 442.519 45.3733 445.772 43.08C449.079 40.7333 452.572 39.56 456.252 39.56C457.425 39.56 458.199 39.8 458.572 40.28C458.999 40.7067 459.345 41.5067 459.612 42.68C460.625 42.4667 461.799 42.36 463.132 42.36ZM448.732 69.32C449.959 69.32 451.132 68.5733 452.252 67.08C453.372 65.5867 454.172 63.4533 454.652 60.68L457.212 47C455.025 47.0533 452.999 47.9067 451.132 49.56C449.265 51.16 447.772 53.2933 446.652 55.96C445.532 58.6267 444.972 61.4533 444.972 64.44C444.972 66.0933 445.292 67.32 445.932 68.12C446.625 68.92 447.559 69.32 448.732 69.32ZM442.092 105.64C443.425 105.64 444.919 104.04 446.572 100.84C448.279 97.64 449.905 92.5467 451.452 85.56C447.345 89.08 444.385 92.2533 442.572 95.08C440.759 97.9067 439.852 100.387 439.852 102.52C439.852 103.427 440.012 104.173 440.332 104.76C440.705 105.347 441.292 105.64 442.092 105.64ZM486.439 79.16C483.665 79.16 481.532 78.52 480.039 77.24C478.599 75.96 477.879 74.52 477.879 72.92C477.879 71.5333 478.385 70.3333 479.399 69.32C480.412 68.3067 481.905 67.8 483.879 67.8C484.572 67.8 485.372 67.88 486.279 68.04C487.239 68.1467 487.959 68.2267 488.439 68.28C488.385 66.8933 488.065 65.5867 487.479 64.36C486.945 63.1333 486.252 61.96 485.399 60.84C484.545 59.6667 483.745 58.6533 482.999 57.8C481.345 60.9467 479.692 63.56 478.039 65.64C476.439 67.72 474.679 69.6933 472.759 71.56C471.799 72.52 470.785 73 469.719 73C468.865 73 468.172 72.7067 467.639 72.12C467.105 71.48 466.839 70.7067 466.839 69.8C466.839 68.7333 467.212 67.7467 467.959 66.84L468.999 65.56C471.932 61.9333 474.145 58.9467 475.639 56.6C476.599 55.0533 477.559 53.2133 478.519 51.08C479.532 48.9467 480.839 46.04 482.439 42.36C483.452 40.0133 485.559 38.84 488.759 38.84C490.252 38.84 491.292 38.9733 491.879 39.24C492.465 39.5067 492.759 39.9333 492.759 40.52C492.759 40.84 492.652 41.3467 492.439 42.04C492.225 42.7333 491.932 43.4267 491.559 44.12C490.599 46.04 490.119 47.6667 490.119 49C490.119 49.8 490.385 50.68 490.919 51.64C491.505 52.6 492.385 53.8 493.559 55.24C495.265 57.48 496.545 59.4 497.399 61C498.305 62.5467 498.759 64.2533 498.759 66.12C498.759 68.36 498.225 70.4933 497.159 72.52C496.145 74.4933 494.705 76.0933 492.839 77.32C490.972 78.5467 488.839 79.16 486.439 79.16Z" fill="white"/>
<path d="M15.68 73.96L15.2328 74.8545L15.241 74.8585L15.68 73.96ZM4.88 64.04L4.01779 64.5465L4.88 64.04ZM5.52 28.28L4.62242 27.8391L4.61934 27.8455L5.52 28.28ZM17.6 14.2L18.1466 15.0375L18.1527 15.0334L17.6 14.2ZM47.6 13.64L46.8929 14.3471L46.8993 14.3534L47.6 13.64ZM50.32 33.16L49.4605 32.6489L49.4553 32.6576L49.4503 32.6664L50.32 33.16ZM41.92 35.08L42.5506 34.3039L41.92 35.08ZM40.96 29.4L39.9794 29.2039L39.9763 29.2197L39.9736 29.2356L40.96 29.4ZM23.6 21.72L23.0175 20.9072L23.6 21.72ZM15.84 31.88L16.7534 32.2872L16.7552 32.2831L15.84 31.88ZM18.24 62.6L17.5382 63.3124L17.5437 63.3177L18.24 62.6ZM44.56 66.52L44.7956 67.4919L44.8059 67.4893L44.56 66.52ZM56.4 62.44L56.0286 61.5115L56.0208 61.5147L56.013 61.5179L56.4 62.44ZM60.32 62.92L59.4879 63.4747H59.488L60.32 62.92ZM55.68 72.6L56.0801 73.5165L56.0823 73.5155L55.68 72.6ZM43.84 76.28L44.0212 77.2635L44.0312 77.2616L43.84 76.28ZM32.24 76.4C26.0133 76.4 20.6494 75.2752 16.119 73.0615L15.241 74.8585C20.0973 77.2314 25.7734 78.4 32.24 78.4V76.4ZM16.1272 73.0656C11.5958 70.7999 8.14492 67.6232 5.74221 63.5334L4.01779 64.5465C6.62841 68.9902 10.3775 72.4268 15.2328 74.8544L16.1272 73.0656ZM5.74221 63.5334C3.338 59.4412 2.12 54.661 2.12 49.16H0.12C0.12 54.9656 1.40867 60.1055 4.01779 64.5465L5.74221 63.5334ZM2.12 49.16C2.12 41.4463 3.56247 34.6388 6.42066 28.7145L4.61934 27.8455C1.61086 34.0812 0.12 41.1937 0.12 49.16H2.12ZM6.41755 28.7209C9.33469 22.7824 13.2478 18.2345 18.1465 15.0374L17.0535 13.3626C11.8188 16.7788 7.67865 21.6175 4.62245 27.8391L6.41755 28.7209ZM18.1527 15.0334C23.0525 11.7841 28.4862 10.16 34.48 10.16V8.16C28.1004 8.16 22.2809 9.89593 17.0473 13.3666L18.1527 15.0334ZM34.48 10.16C40.0736 10.16 44.1537 11.6079 46.8929 14.3471L48.3071 12.9329C45.073 9.69876 40.4064 8.16 34.48 8.16V10.16ZM46.8993 14.3534C49.6638 17.0686 51.08 20.6886 51.08 25.32H53.08C53.08 20.2447 51.5096 16.0781 48.3007 12.9265L46.8993 14.3534ZM51.08 25.32C51.08 28.4646 50.5113 30.8817 49.4605 32.6489L51.1795 33.6711C52.4754 31.4917 53.08 28.6821 53.08 25.32H51.08ZM49.4503 32.6664C48.4941 34.3512 47.1862 35.12 45.44 35.12V37.12C47.9605 37.12 49.9059 35.9155 51.1897 33.6536L49.4503 32.6664ZM45.44 35.12C44.0944 35.12 43.171 34.808 42.5506 34.3039L41.2894 35.8561C42.3756 36.7387 43.799 37.12 45.44 37.12V35.12ZM42.5506 34.3039C41.9808 33.841 41.64 33.1429 41.64 32.04H39.64C39.64 33.6037 40.1525 34.9324 41.2894 35.8561L42.5506 34.3039ZM41.64 32.04C41.64 31.6543 41.7318 30.8518 41.9464 29.5644L39.9736 29.2356C39.7615 30.5082 39.64 31.4657 39.64 32.04H41.64ZM41.9406 29.5961C42.2659 27.9696 42.44 26.6158 42.44 25.56H40.44C40.44 26.4242 40.2941 27.6304 39.9794 29.2039L41.9406 29.5961ZM42.44 25.56C42.44 22.9623 41.7447 20.8347 40.1842 19.3707C38.6357 17.918 36.4055 17.28 33.68 17.28V19.28C36.1279 19.28 37.7776 19.8554 38.8158 20.8293C39.842 21.792 40.44 23.3044 40.44 25.56H42.44ZM33.68 17.28C29.9266 17.28 26.3663 18.5072 23.0175 20.9072L24.1825 22.5328C27.2337 20.3461 30.3934 19.28 33.68 19.28V17.28ZM23.0175 20.9072C19.6404 23.3274 16.9529 26.8726 14.9248 31.4769L16.7552 32.2831C18.6737 27.9274 21.1596 24.6992 24.1825 22.5328L23.0175 20.9072ZM14.9266 31.4728C12.8832 36.0569 11.88 41.4823 11.88 47.72H13.88C13.88 41.691 14.8502 36.5565 16.7534 32.2872L14.9266 31.4728ZM11.88 47.72C11.88 54.3101 13.7251 59.5561 17.5382 63.3124L18.9418 61.8876C15.6083 58.6039 13.88 53.9299 13.88 47.72H11.88ZM17.5437 63.3177C21.3678 67.0277 26.9392 68.8 34.08 68.8V66.8C27.2475 66.8 22.2588 65.1056 18.9363 61.8823L17.5437 63.3177ZM34.08 68.8C37.6295 68.8 41.2019 68.363 44.7956 67.4919L44.3244 65.5481C40.8781 66.3836 37.4638 66.8 34.08 66.8V68.8ZM44.8059 67.4893C48.4383 66.5676 52.4329 65.1897 56.787 63.3621L56.013 61.5179C51.7271 63.3169 47.8284 64.659 44.3141 65.5507L44.8059 67.4893ZM56.7714 63.3685C57.5171 63.0702 58.0481 62.96 58.4 62.96V60.96C57.6852 60.96 56.8829 61.1698 56.0286 61.5115L56.7714 63.3685ZM58.4 62.96C58.962 62.96 59.2694 63.1469 59.4879 63.4747L61.1521 62.3653C60.5173 61.4131 59.5446 60.96 58.4 60.96V62.96ZM59.488 63.4747C59.7753 63.9057 59.96 64.5224 59.96 65.4H61.96C61.96 64.2509 61.7181 63.2143 61.1521 62.3653L59.488 63.4747ZM59.96 65.4C59.96 66.8349 59.576 68.0363 58.8336 69.0486C58.0836 70.0714 56.9228 70.9617 55.2777 71.6845L56.0823 73.5155C57.9572 72.6917 59.4364 71.6086 60.4464 70.2314C61.464 68.8437 61.96 67.2185 61.96 65.4H59.96ZM55.2799 71.6835C51.5611 73.3072 47.6846 74.5123 43.6488 75.2985L44.0312 77.2616C48.2088 76.4477 52.2256 75.1994 56.0801 73.5165L55.2799 71.6835ZM43.6588 75.2965C39.6583 76.0335 35.8525 76.4 32.24 76.4V78.4C35.9875 78.4 39.9151 78.0198 44.0212 77.2635L43.6588 75.2965ZM100.684 60.12L99.82 60.6239L99.8351 60.6498L99.8517 60.6747L100.684 60.12ZM99.8038 67.72L100.559 68.3755L100.561 68.3736L99.8038 67.72ZM92.2038 74.68L91.6336 73.8584L91.6257 73.864L92.2038 74.68ZM77.2438 75.08L76.4881 75.7349L76.4936 75.7413L76.4992 75.7475L77.2438 75.08ZM76.2838 60.2L75.3043 59.9979L75.3021 60.0091L76.2838 60.2ZM73.4837 54.68L74.2926 55.2682L74.3007 55.2567L73.4837 54.68ZM69.6438 61.72L70.5603 62.1199L69.6438 61.72ZM66.5238 71L65.5527 70.7612L65.5508 70.7689L66.5238 71ZM55.8037 75.72L54.8782 76.0986L54.8888 76.1246L54.9009 76.1499L55.8037 75.72ZM55.1637 65.4L56.1624 65.4526L56.1634 65.4325L56.1637 65.4125L55.1637 65.4ZM55.2438 59L56.2438 59.0125V59H55.2438ZM57.7238 33.32L56.7416 33.1318L56.7405 33.1375L57.7238 33.32ZM65.1637 10.92L64.2853 10.4422L64.2838 10.445L65.1637 10.92ZM82.9238 5L82.1045 5.57346L82.1127 5.5852L82.1213 5.5967L82.9238 5ZM80.5238 29.96L81.4013 30.4394L81.4032 30.436L80.5238 29.96ZM65.1637 50.2L64.4268 49.524L64.1859 49.7867L64.1654 50.1424L65.1637 50.2ZM64.9238 58.76H63.9238L65.856 59.1219L64.9238 58.76ZM70.7637 47.72L69.9673 47.1153L69.9656 47.1176L70.7637 47.72ZM77.1637 41.56L76.6653 40.693L76.6558 40.6986L77.1637 41.56ZM86.4437 56.2L87.4207 56.4134L87.4213 56.4108L86.4437 56.2ZM91.0038 66.68L91.6681 67.4274L91.6698 67.4259L91.0038 66.68ZM96.9238 60.28L96.1644 59.6292L96.1567 59.6384L96.9238 60.28ZM72.1237 13.88L73.042 14.2761L73.0447 14.2696L72.1237 13.88ZM68.6838 25L67.711 24.7679L67.7092 24.776L68.6838 25ZM66.0438 40.2L65.0516 40.0748L64.6309 43.4083L66.8059 40.8473L66.0438 40.2ZM74.2038 27.48L73.301 27.0496L73.297 27.0583L74.2038 27.48ZM76.9238 11.08L77.8484 10.6992L76.9238 11.08ZM99.0838 60.16C99.3926 60.16 99.6108 60.2654 99.82 60.6239L101.548 59.6161C101.01 58.6946 100.162 58.16 99.0838 58.16V60.16ZM99.8517 60.6747C100.13 61.0914 100.324 61.752 100.324 62.76H102.324C102.324 61.528 102.091 60.4286 101.516 59.5653L99.8517 60.6747ZM100.324 62.76C100.324 64.7436 99.8531 66.133 99.0469 67.0664L100.561 68.3736C101.781 66.9604 102.324 65.0431 102.324 62.76H100.324ZM99.0485 67.0645C96.6404 69.8391 94.1678 72.1 91.6337 73.8584L92.7738 75.5016C95.4663 73.6333 98.0604 71.2543 100.559 68.3755L99.0485 67.0645ZM91.6257 73.864C89.2441 75.5509 86.5152 76.4 83.4037 76.4V78.4C86.9056 78.4 90.0434 77.4357 92.7818 75.496L91.6257 73.864ZM83.4037 76.4C80.8749 76.4 79.131 75.687 77.9883 74.4125L76.4992 75.7475C78.1298 77.5664 80.4926 78.4 83.4037 78.4V76.4ZM77.9994 74.4251C76.8244 73.0693 76.1637 71.044 76.1637 68.2H74.1637C74.1637 71.3293 74.8897 73.8907 76.4881 75.7349L77.9994 74.4251ZM76.1637 68.2C76.1637 66.8155 76.5175 64.2373 77.2654 60.3909L75.3021 60.0091C74.5567 63.8427 74.1637 66.5978 74.1637 68.2H76.1637ZM77.2631 60.4021C77.9547 57.0507 78.3238 54.6361 78.3238 53.24H76.3238C76.3238 54.4039 75.9995 56.6293 75.3044 59.9979L77.2631 60.4021ZM78.3238 53.24C78.3238 52.7298 78.2417 52.17 77.9278 51.7135C77.5675 51.1893 77.0154 50.96 76.4437 50.96V52.96C76.4691 52.96 76.443 52.9643 76.3925 52.9398C76.3373 52.913 76.2986 52.874 76.2797 52.8465C76.2653 52.8256 76.2783 52.8346 76.294 52.9034C76.3098 52.9721 76.3238 53.0808 76.3238 53.24H78.3238ZM76.4437 50.96C75.6983 50.96 75.0349 51.4187 74.5071 51.9037C73.9386 52.4261 73.3248 53.1711 72.6668 54.1033L74.3007 55.2567C74.9227 54.3756 75.4422 53.7606 75.8604 53.3763C76.3193 52.9546 76.4958 52.96 76.4437 52.96V50.96ZM72.675 54.0918C71.3375 55.9309 70.024 58.3482 68.7272 61.3201L70.5603 62.1199C71.8235 59.2251 73.07 56.9491 74.2925 55.2682L72.675 54.0918ZM68.7272 61.3201C67.4235 64.3078 66.3656 67.4553 65.5527 70.7612L67.4948 71.2388C68.2819 68.0381 69.304 64.9988 70.5603 62.1199L68.7272 61.3201ZM65.5508 70.7689C65.0771 72.7635 64.2808 74.1489 63.2356 75.0385C62.1999 75.9199 60.8195 76.4 59.0037 76.4V78.4C61.188 78.4 63.0609 77.8134 64.5319 76.5615C65.9933 75.3177 66.9571 73.5032 67.4967 71.2311L65.5508 70.7689ZM59.0037 76.4C57.6559 76.4 57.0235 75.9556 56.7066 75.2901L54.9009 76.1499C55.6506 77.7244 57.1516 78.4 59.0037 78.4V76.4ZM56.7293 75.3414C56.331 74.3677 56.0838 72.4661 56.0838 69.48H54.0838C54.0838 72.4672 54.3165 74.7256 54.8782 76.0986L56.7293 75.3414ZM56.0838 69.48C56.0838 67.7808 56.1104 66.4406 56.1624 65.4526L54.1651 65.3474C54.1105 66.3861 54.0838 67.7659 54.0838 69.48H56.0838ZM56.1637 65.4125L56.2437 59.0125L54.2438 58.9875L54.1638 65.3875L56.1637 65.4125ZM56.2438 59C56.2438 50.8538 57.0637 42.3551 58.707 33.5025L56.7405 33.1375C55.0772 42.0983 54.2438 50.7196 54.2438 59H56.2438ZM58.7059 33.5082C60.3992 24.6713 62.8517 17.3081 66.0437 11.395L64.2838 10.445C60.9691 16.5852 58.4617 24.1553 56.7416 33.1318L58.7059 33.5082ZM66.0422 11.3978C69.2715 5.46001 72.9504 2.8 77.0038 2.8V0.799995C71.8838 0.799995 67.6693 4.21998 64.2853 10.4422L66.0422 11.3978ZM77.0038 2.8C79.1078 2.8 80.7847 3.68806 82.1045 5.57346L83.743 4.42653C82.0761 2.04527 79.8064 0.799995 77.0038 0.799995V2.8ZM82.1213 5.5967C83.5062 7.4592 84.2438 9.95116 84.2438 13.16H86.2438C86.2438 9.64884 85.4346 6.70079 83.7262 4.40329L82.1213 5.5967ZM84.2438 13.16C84.2438 18.3467 82.7296 23.784 79.6443 29.484L81.4032 30.436C84.6112 24.5093 86.2438 18.7466 86.2438 13.16H84.2438ZM79.6462 29.4806C76.5542 35.1404 71.4939 41.8193 64.4268 49.524L65.9007 50.876C73.0203 43.114 78.1999 36.2996 81.4013 30.4394L79.6462 29.4806ZM64.1654 50.1424C64.0042 52.9359 63.9238 55.8085 63.9238 58.76H65.9238C65.9238 55.8448 66.0033 53.0107 66.1621 50.2576L64.1654 50.1424ZM65.856 59.1219C67.5941 54.645 69.5005 51.0538 71.5619 48.3224L69.9656 47.1176C67.7604 50.0395 65.7734 53.8084 63.9915 58.3981L65.856 59.1219ZM71.5602 48.3247C73.7037 45.5016 75.7449 43.5577 77.6717 42.4214L76.6558 40.6986C74.4226 42.0156 72.1972 44.1784 69.9673 47.1153L71.5602 48.3247ZM77.6622 42.4269C79.7013 41.2544 81.4747 40.72 83.0038 40.72V38.72C81.0128 38.72 78.8929 39.4122 76.6653 40.6931L77.6622 42.4269ZM83.0038 40.72C84.5829 40.72 85.5837 41.1141 86.1966 41.7271C86.8096 42.3401 87.2038 43.3408 87.2038 44.92H89.2038C89.2038 43.0325 88.7312 41.4332 87.6109 40.3129C86.4905 39.1925 84.8912 38.72 83.0038 38.72V40.72ZM87.2038 44.92C87.2038 46.8789 86.6415 50.5403 85.4662 55.9892L87.4213 56.4108C88.5927 50.9797 89.2038 47.1211 89.2038 44.92H87.2038ZM85.4668 55.9866C84.4584 60.6039 83.9238 63.7792 83.9238 65.4H85.9238C85.9238 64.0341 86.4024 61.0761 87.4207 56.4134L85.4668 55.9866ZM83.9238 65.4C83.9238 66.5577 84.1282 67.6064 84.6941 68.387C85.3033 69.2272 86.2134 69.6 87.2438 69.6V67.6C86.7274 67.6 86.4775 67.4395 86.3134 67.213C86.1059 66.9269 85.9238 66.3757 85.9238 65.4H83.9238ZM87.2438 69.6C88.688 69.6 90.1774 68.7525 91.6681 67.4274L90.3394 65.9326C88.9501 67.1675 87.9328 67.6 87.2438 67.6V69.6ZM91.6698 67.4259C93.2184 66.0432 95.229 63.8651 97.6908 60.9216L96.1567 59.6384C93.7119 62.5616 91.7757 64.6501 90.3377 65.9341L91.6698 67.4259ZM97.683 60.9308C98.1805 60.3504 98.6415 60.16 99.0838 60.16V58.16C97.926 58.16 96.947 58.7162 96.1645 59.6292L97.683 60.9308ZM75.3238 8.72C74.3528 8.72 73.5864 9.40242 73.0111 10.1503C72.4016 10.9426 71.8025 12.0729 71.2028 13.4904L73.0447 14.2696C73.6183 12.9138 74.1392 11.964 74.5964 11.3697C75.0878 10.7309 75.3347 10.72 75.3238 10.72V8.72ZM71.2055 13.4839C69.9997 16.2793 68.8372 20.0486 67.7111 24.7679L69.6564 25.2321C70.7703 20.5647 71.9012 16.9207 73.042 14.2761L71.2055 13.4839ZM67.7092 24.776C66.6339 29.4533 65.7485 34.5534 65.0516 40.0748L67.0359 40.3252C67.7257 34.8599 68.6003 29.8267 69.6583 25.224L67.7092 24.776ZM66.8059 40.8473C70.1701 36.8863 72.9389 32.5705 75.1105 27.9017L73.297 27.0583C71.2019 31.5628 68.5307 35.727 65.2816 39.5527L66.8059 40.8473ZM75.1064 27.9103C77.3353 23.2352 78.4837 18.9259 78.4837 15H76.4837C76.4837 18.5408 75.4456 22.5515 73.3011 27.0497L75.1064 27.9103ZM78.4837 15C78.4837 13.2451 78.2954 11.7847 77.8484 10.6992L75.9991 11.4607C76.2988 12.1886 76.4837 13.3416 76.4837 15H78.4837ZM77.8484 10.6992C77.3965 9.60174 76.5898 8.72 75.3238 8.72V10.72C75.4443 10.72 75.7043 10.7449 75.9991 11.4607L77.8484 10.6992ZM96.76 73.8L97.5324 73.1649L96.76 73.8ZM96.76 52.28L97.6468 52.7421L97.6494 52.7371L96.76 52.28ZM104.6 43.08L105.176 43.8973L105.179 43.8955L104.6 43.08ZM117.4 40.28L116.611 40.8939L116.649 40.9431L116.693 40.9871L117.4 40.28ZM118.44 42.68L117.465 42.9016L117.679 43.843L118.627 43.6623L118.44 42.68ZM124.68 53.16L125.661 53.3561L125.662 53.3465L124.68 53.16ZM123.4 67.88L122.611 68.4939L122.631 68.5198L122.653 68.5444L123.4 67.88ZM128.68 66.68L129.344 67.4274L129.352 67.4207L129.359 67.4138L128.68 66.68ZM134.52 60.28L133.761 59.6292L133.753 59.6384L134.52 60.28ZM138.28 60.12L137.416 60.6239L137.431 60.6498L137.448 60.6747L138.28 60.12ZM137.4 67.72L136.643 67.0664L136.632 67.0797L136.621 67.0934L137.4 67.72ZM130.44 74.6L131.046 75.3958L130.44 74.6ZM118.44 75.64L117.792 76.4012L117.807 76.4141L117.822 76.4263L118.44 75.64ZM115.16 70.68L116.101 70.3421L115.401 68.3911L114.31 70.1536L115.16 70.68ZM110.92 67.24L110.127 66.6303L110.92 67.24ZM113.24 61.72L114.219 61.9249L114.22 61.9171L113.24 61.72ZM116.2 47L117.18 47.1971L117.427 45.9705L116.176 46.0003L116.2 47ZM109.96 49.56L110.611 50.3193L110.613 50.3178L109.96 49.56ZM105.48 55.96L106.402 56.3472L105.48 55.96ZM104.76 68.12L103.979 68.7447L103.991 68.7601L104.004 68.7749L104.76 68.12ZM104.68 76.4C101.65 76.4 99.3023 75.3174 97.5324 73.1649L95.9876 74.4351C98.1644 77.0826 101.096 78.4 104.68 78.4V76.4ZM97.5324 73.1649C95.7404 70.9854 94.8 68.0818 94.8 64.36H92.8C92.8 68.4249 93.833 71.8146 95.9876 74.4351L97.5324 73.1649ZM94.8 64.36C94.8 60.2544 95.7478 56.3862 97.6468 52.7421L95.8732 51.8179C93.8256 55.7471 92.8 59.9323 92.8 64.36H94.8ZM97.6494 52.7371C99.5554 49.0283 102.066 46.0899 105.176 43.8973L104.024 42.2627C100.628 44.6568 97.9113 47.8517 95.8706 51.8229L97.6494 52.7371ZM105.179 43.8955C108.334 41.6561 111.628 40.56 115.08 40.56V38.56C111.172 38.56 107.479 39.8106 104.021 42.2645L105.179 43.8955ZM115.08 40.56C116.208 40.56 116.544 40.8089 116.611 40.8939L118.189 39.6661C117.509 38.7911 116.298 38.56 115.08 38.56V40.56ZM116.693 40.9871C116.908 41.2024 117.206 41.7617 117.465 42.9016L119.415 42.4584C119.141 41.2516 118.745 40.211 118.107 39.5729L116.693 40.9871ZM118.627 43.6623C119.681 43.4616 120.791 43.36 121.96 43.36V41.36C120.675 41.36 119.439 41.4717 118.253 41.6977L118.627 43.6623ZM121.96 43.36C123.178 43.36 123.912 43.5829 124.319 43.8737C124.664 44.1203 124.88 44.4895 124.88 45.16H126.88C126.88 43.9638 126.443 42.9331 125.481 42.2463C124.582 41.6038 123.356 41.36 121.96 41.36V43.36ZM124.88 45.16C124.88 46.1653 124.504 48.728 123.698 52.9735L125.662 53.3465C126.456 49.1653 126.88 46.3947 126.88 45.16H124.88ZM123.699 52.9639C122.474 59.091 121.84 63.4482 121.84 65.96H123.84C123.84 63.6717 124.433 59.4957 125.661 53.3561L123.699 52.9639ZM121.84 65.96C121.84 66.912 122.063 67.79 122.611 68.4939L124.189 67.2661C123.99 67.01 123.84 66.608 123.84 65.96H121.84ZM122.653 68.5444C123.268 69.237 124.073 69.6 125 69.6V67.6C124.647 67.6 124.385 67.483 124.147 67.2156L122.653 68.5444ZM125 69.6C126.4 69.6 127.866 68.7418 129.344 67.4274L128.016 65.9326C126.614 67.1782 125.627 67.6 125 67.6V69.6ZM129.359 67.4138C130.847 66.036 132.827 63.8631 135.287 60.9216L133.753 59.6384C131.306 62.5636 129.393 64.6574 128.001 65.9462L129.359 67.4138ZM135.279 60.9308C135.777 60.3504 136.238 60.16 136.68 60.16V58.16C135.522 58.16 134.543 58.7162 133.761 59.6292L135.279 60.9308ZM136.68 60.16C136.989 60.16 137.207 60.2654 137.416 60.6239L139.144 59.6161C138.606 58.6946 137.758 58.16 136.68 58.16V60.16ZM137.448 60.6747C137.726 61.0914 137.92 61.752 137.92 62.76H139.92C139.92 61.528 139.688 60.4286 139.112 59.5653L137.448 60.6747ZM137.92 62.76C137.92 64.7436 137.449 66.133 136.643 67.0664L138.157 68.3736C139.377 66.9604 139.92 65.0431 139.92 62.76H137.92ZM136.621 67.0934C134.478 69.7583 132.215 71.9926 129.834 73.8042L131.046 75.3958C133.571 73.474 135.948 71.1217 138.179 68.3466L136.621 67.0934ZM129.834 73.8042C127.496 75.5836 125.33 76.4 123.32 76.4V78.4C125.897 78.4 128.478 77.3497 131.046 75.3958L129.834 73.8042ZM123.32 76.4C121.802 76.4 120.39 75.9003 119.058 74.8537L117.822 76.4263C119.477 77.7264 121.318 78.4 123.32 78.4V76.4ZM119.088 74.8788C117.802 73.783 116.799 72.2858 116.101 70.3421L114.219 71.0179C115.014 73.2342 116.198 75.0436 117.792 76.4012L119.088 74.8788ZM114.31 70.1536C111.666 74.424 108.458 76.4 104.68 76.4V78.4C109.329 78.4 113.107 75.896 116.01 71.2064L114.31 70.1536ZM107.56 70.32C109.173 70.32 110.553 69.3575 111.713 67.8497L110.127 66.6303C109.154 67.8959 108.293 68.32 107.56 68.32V70.32ZM111.713 67.8497C112.897 66.3105 113.718 64.3179 114.219 61.9249L112.261 61.5151C111.802 63.7088 111.077 65.3962 110.127 66.6303L111.713 67.8497ZM114.22 61.9171L117.18 47.1971L115.22 46.8029L112.26 61.5229L114.22 61.9171ZM116.176 46.0003C113.675 46.0598 111.378 47.0189 109.307 48.8022L110.613 50.3178C112.382 48.7945 114.245 48.0468 116.224 47.9997L116.176 46.0003ZM109.309 48.8007C107.305 50.5184 105.728 52.7879 104.558 55.5728L106.402 56.3472C107.472 53.7988 108.881 51.8016 110.611 50.3193L109.309 48.8007ZM104.558 55.5728C103.385 58.3661 102.8 61.3248 102.8 64.44H104.8C104.8 61.5819 105.335 58.8873 106.402 56.3472L104.558 55.5728ZM102.8 64.44C102.8 66.1908 103.133 67.6874 103.979 68.7447L105.541 67.4953C105.107 66.9526 104.8 65.9959 104.8 64.44H102.8ZM104.004 68.7749C104.91 69.8194 106.132 70.32 107.56 70.32V68.32C106.641 68.32 105.997 68.0206 105.516 67.4651L104.004 68.7749ZM133.778 74.2L132.842 74.5511L132.846 74.5613L132.85 74.5714L133.778 74.2ZM135.538 44.2L136.492 44.5015L136.493 44.4964L135.538 44.2ZM137.858 40.84L138.403 41.6785L138.413 41.6721L137.858 40.84ZM144.178 47.4L143.212 47.1413L143.21 47.1493L143.208 47.1575L144.178 47.4ZM142.098 58.92L141.102 58.8295L143.032 59.2783L142.098 58.92ZM148.018 47.72L147.222 47.1153L148.018 47.72ZM154.418 41.56L153.92 40.693L153.91 40.6986L154.418 41.56ZM163.698 56.2L164.675 56.4134L164.676 56.4108L163.698 56.2ZM168.258 66.68L168.922 67.4274L168.924 67.4259L168.258 66.68ZM174.178 60.28L173.419 59.6292L173.411 59.6384L174.178 60.28ZM177.938 60.12L177.074 60.6239L177.089 60.6498L177.106 60.6747L177.938 60.12ZM177.058 67.72L176.301 67.0664L176.291 67.078L176.282 67.09L177.058 67.72ZM169.618 74.68L169.056 73.853L169.048 73.8584L169.618 74.68ZM154.498 75.08L153.742 75.7349L153.748 75.7413L153.754 75.7475L154.498 75.08ZM153.538 60.2L152.559 59.9979L152.557 60.0091L153.538 60.2ZM150.738 54.68L149.921 54.1033L149.918 54.1082L150.738 54.68ZM146.898 61.72L145.988 61.3062L145.985 61.3131L145.982 61.3201L146.898 61.72ZM143.778 71L142.807 70.7612L142.804 70.7721L143.778 71ZM141.698 76.12L140.948 75.4584L140.946 75.4615L141.698 76.12ZM138.098 76.4C137.27 76.4 136.619 76.1858 136.093 75.7964C135.559 75.4006 135.084 74.771 134.707 73.8286L132.85 74.5714C133.326 75.7623 133.997 76.7327 134.903 77.4036C135.817 78.0809 136.9 78.4 138.098 78.4V76.4ZM134.714 73.8489C133.981 71.8936 133.578 68.6331 133.578 63.96H131.578C131.578 68.6736 131.975 72.2397 132.842 74.5511L134.714 73.8489ZM133.578 63.96C133.578 57.1229 134.551 50.6383 136.492 44.5015L134.585 43.8985C132.579 50.2417 131.578 56.9305 131.578 63.96H133.578ZM136.493 44.4964C136.923 43.1105 137.581 42.213 138.403 41.6784L137.313 40.0016C136.002 40.8536 135.113 42.1961 134.583 43.9036L136.493 44.4964ZM138.413 41.6721C139.309 41.0749 140.635 40.72 142.498 40.72V38.72C140.414 38.72 138.648 39.1118 137.303 40.0079L138.413 41.6721ZM142.498 40.72C143.545 40.72 144.039 40.8625 144.208 40.968L145.268 39.272C144.584 38.8442 143.585 38.72 142.498 38.72V40.72ZM144.208 40.968C144.217 40.9736 144.378 41.0585 144.378 41.64H146.378C146.378 40.7281 146.112 39.7997 145.268 39.272L144.208 40.968ZM144.378 41.64C144.378 41.9545 144.298 42.5595 144.099 43.516C143.904 44.4504 143.61 45.657 143.212 47.1413L145.144 47.6587C145.547 46.1563 145.852 44.9096 146.057 43.924C146.258 42.9605 146.378 42.1788 146.378 41.64H144.378ZM143.208 47.1575C142.672 49.3013 142.242 51.1841 141.918 52.8039L143.879 53.1961C144.195 51.6159 144.618 49.7654 145.148 47.6425L143.208 47.1575ZM141.918 52.8039C141.588 54.4503 141.318 56.4614 141.102 58.8295L143.094 59.0105C143.305 56.6852 143.568 54.7497 143.879 53.1961L141.918 52.8039ZM143.032 59.2783C144.769 54.7505 146.701 51.108 148.815 48.3247L147.222 47.1153C144.962 50.092 142.947 53.9162 141.165 58.5617L143.032 59.2783ZM148.815 48.3247C150.958 45.5016 152.999 43.5577 154.926 42.4214L153.91 40.6986C151.677 42.0156 149.452 44.1784 147.222 47.1153L148.815 48.3247ZM154.917 42.4269C156.956 41.2544 158.729 40.72 160.258 40.72V38.72C158.267 38.72 156.147 39.4122 153.92 40.6931L154.917 42.4269ZM160.258 40.72C161.837 40.72 162.838 41.1141 163.451 41.7271C164.064 42.3401 164.458 43.3408 164.458 44.92H166.458C166.458 43.0325 165.986 41.4332 164.865 40.3129C163.745 39.1925 162.146 38.72 160.258 38.72V40.72ZM164.458 44.92C164.458 46.8789 163.896 50.5403 162.721 55.9892L164.676 56.4108C165.847 50.9797 166.458 47.1211 166.458 44.92H164.458ZM162.721 55.9866C161.713 60.6039 161.178 63.7792 161.178 65.4H163.178C163.178 64.0341 163.657 61.0761 164.675 56.4134L162.721 55.9866ZM161.178 65.4C161.178 66.5577 161.383 67.6064 161.949 68.387C162.558 69.2272 163.468 69.6 164.498 69.6V67.6C163.982 67.6 163.732 67.4395 163.568 67.213C163.36 66.9269 163.178 66.3757 163.178 65.4H161.178ZM164.498 69.6C165.942 69.6 167.432 68.7525 168.922 67.4274L167.594 65.9326C166.204 67.1675 165.187 67.6 164.498 67.6V69.6ZM168.924 67.4259C170.473 66.0432 172.483 63.8651 174.945 60.9216L173.411 59.6384C170.966 62.5616 169.03 64.6501 167.592 65.9341L168.924 67.4259ZM174.937 60.9308C175.435 60.3504 175.896 60.16 176.338 60.16V58.16C175.18 58.16 174.201 58.7163 173.419 59.6292L174.937 60.9308ZM176.338 60.16C176.647 60.16 176.865 60.2654 177.074 60.6239L178.802 59.6161C178.264 58.6946 177.416 58.16 176.338 58.16V60.16ZM177.106 60.6747C177.384 61.0914 177.578 61.752 177.578 62.76H179.578C179.578 61.528 179.346 60.4286 178.77 59.5653L177.106 60.6747ZM177.578 62.76C177.578 64.7436 177.107 66.133 176.301 67.0664L177.815 68.3736C179.035 66.9604 179.578 65.0431 179.578 62.76H177.578ZM176.282 67.09C174.042 69.8505 171.632 72.1011 169.056 73.8531L170.18 75.5069C172.937 73.6322 175.488 71.2428 177.835 68.35L176.282 67.09ZM169.048 73.8584C166.612 75.5489 163.827 76.4 160.658 76.4V78.4C164.21 78.4 167.398 77.4378 170.188 75.5016L169.048 73.8584ZM160.658 76.4C158.129 76.4 156.385 75.687 155.243 74.4125L153.754 75.7475C155.384 77.5664 157.747 78.4 160.658 78.4V76.4ZM155.254 74.4251C154.079 73.0693 153.418 71.044 153.418 68.2H151.418C151.418 71.3293 152.144 73.8907 153.742 75.7349L155.254 74.4251ZM153.418 68.2C153.418 66.8155 153.772 64.2373 154.52 60.3909L152.557 60.0091C151.811 63.8427 151.418 66.5978 151.418 68.2H153.418ZM154.517 60.4021C155.209 57.0507 155.578 54.6361 155.578 53.24H153.578C153.578 54.4039 153.254 56.6293 152.559 59.9979L154.517 60.4021ZM155.578 53.24C155.578 52.7298 155.496 52.17 155.182 51.7135C154.822 51.1893 154.27 50.96 153.698 50.96V52.96C153.723 52.96 153.697 52.9643 153.647 52.9398C153.592 52.913 153.553 52.874 153.534 52.8465C153.52 52.8256 153.533 52.8346 153.548 52.9034C153.564 52.9721 153.578 53.0808 153.578 53.24H155.578ZM153.698 50.96C152.953 50.96 152.289 51.4187 151.762 51.9037C151.193 52.4261 150.579 53.1711 149.921 54.1033L151.555 55.2567C152.177 54.3756 152.697 53.7606 153.115 53.3763C153.574 52.9546 153.75 52.96 153.698 52.96V50.96ZM149.918 54.1082C148.644 55.9361 147.335 58.3421 145.988 61.3062L147.808 62.1338C149.128 59.2312 150.379 56.9439 151.559 55.2518L149.918 54.1082ZM145.982 61.3201C144.678 64.3078 143.62 67.4553 142.807 70.7612L144.749 71.2388C145.536 68.0381 146.558 64.9988 147.815 62.1199L145.982 61.3201ZM142.804 70.7721C142.222 73.2608 141.572 74.752 140.948 75.4584L142.448 76.7816C143.425 75.6746 144.161 73.7525 144.752 71.2279L142.804 70.7721ZM140.946 75.4615C140.462 76.0136 139.598 76.4 138.098 76.4V78.4C139.905 78.4 141.44 77.9331 142.451 76.7785L140.946 75.4615ZM219.146 60.12L218.282 60.6239L218.297 60.6498L218.314 60.6747L219.146 60.12ZM218.266 67.72L217.509 67.0664L217.5 67.076L217.492 67.0859L218.266 67.72ZM211.066 74.6L211.647 75.4138L211.658 75.4059L211.066 74.6ZM194.026 70.28L194.938 69.8701L194.263 68.3698L193.242 69.6589L194.026 70.28ZM188.106 75.96L187.615 75.0883L187.603 75.0952L188.106 75.96ZM174.186 73.8L173.423 74.4467L173.43 74.4556L173.438 74.4644L174.186 73.8ZM173.786 52.44L174.68 52.8872L174.683 52.882L173.786 52.44ZM181.226 43.48L181.815 44.2881L181.817 44.2864L181.226 43.48ZM191.946 39.32L192.053 40.3142L192.862 40.2268L192.941 39.4175L191.946 39.32ZM197.706 12.84L196.774 12.4756L196.773 12.4792L197.706 12.84ZM214.666 4.92L213.853 5.5032L213.858 5.50999L213.863 5.5167L214.666 4.92ZM212.586 35.32L211.647 34.9757L212.586 35.32ZM200.826 59.96L199.961 59.4568L199.807 59.7223L199.828 60.0288L200.826 59.96ZM202.186 66.6L201.298 67.0614L201.306 67.0751L201.313 67.0886L202.186 66.6ZM209.386 66.68L208.735 65.9207L209.386 66.68ZM215.386 60.28L214.626 59.6292L214.62 59.6371L215.386 60.28ZM205.066 15.08L206.028 15.3528L206.029 15.3491L205.066 15.08ZM202.426 29.16L201.434 29.0326L201.433 29.0416L202.426 29.16ZM200.906 47.4L199.907 47.3496L201.814 47.8172L200.906 47.4ZM209.306 11.32L208.344 11.5947L208.35 11.6156L208.357 11.6362L209.306 11.32ZM188.106 68.12L188.725 68.9049L188.738 68.8951L188.75 68.8849L188.106 68.12ZM191.946 63.48L192.769 64.0482L193.005 63.7064L192.929 63.2979L191.946 63.48ZM191.306 47.56L192.305 47.597L192.357 46.1883L191.01 46.6046L191.306 47.56ZM183.946 53.48L183.107 52.9355L183.104 52.9392L183.946 53.48ZM217.546 60.16C217.854 60.16 218.073 60.2654 218.282 60.6239L220.009 59.6161C219.472 58.6946 218.623 58.16 217.546 58.16V60.16ZM218.314 60.6747C218.591 61.0914 218.786 61.752 218.786 62.76H220.786C220.786 61.528 220.553 60.4286 219.978 59.5653L218.314 60.6747ZM218.786 62.76C218.786 64.7436 218.315 66.133 217.509 67.0664L219.022 68.3736C220.243 66.9604 220.786 65.0431 220.786 62.76H218.786ZM217.492 67.0859C215.355 69.6921 213.015 71.9266 210.474 73.7941L211.658 75.4059C214.342 73.4334 216.803 71.0813 219.039 68.3541L217.492 67.0859ZM210.484 73.7863C207.997 75.5629 205.609 76.4 203.306 76.4V78.4C206.122 78.4 208.907 77.3705 211.647 75.4137L210.484 73.7863ZM203.306 76.4C201.49 76.4 199.919 75.8737 198.554 74.8266C197.176 73.7688 195.958 72.141 194.938 69.8701L193.114 70.6899C194.226 73.1657 195.622 75.0979 197.337 76.4134C199.066 77.7396 201.068 78.4 203.306 78.4V76.4ZM193.242 69.6589C191.026 72.4549 189.15 74.2251 187.615 75.0884L188.596 76.8316C190.474 75.7749 192.545 73.7584 194.809 70.9011L193.242 69.6589ZM187.603 75.0952C186.127 75.9525 184.36 76.4 182.266 76.4V78.4C184.651 78.4 186.777 77.8875 188.608 76.8248L187.603 75.0952ZM182.266 76.4C179.294 76.4 176.874 75.319 174.933 73.1356L173.438 74.4644C175.764 77.081 178.731 78.4 182.266 78.4V76.4ZM174.948 73.1533C173.052 70.9167 172.066 67.9884 172.066 64.28H170.066C170.066 68.3583 171.159 71.7767 173.423 74.4467L174.948 73.1533ZM172.066 64.28C172.066 60.1602 172.94 56.3678 174.68 52.8872L172.891 51.9928C171.005 55.7656 170.066 59.8664 170.066 64.28H172.066ZM174.683 52.882C176.428 49.3391 178.806 46.481 181.815 44.2881L180.637 42.6719C177.352 45.0656 174.77 48.1808 172.889 51.998L174.683 52.882ZM181.817 44.2864C184.875 42.0439 188.281 40.722 192.053 40.3142L191.838 38.3258C187.717 38.7714 183.976 40.2228 180.634 42.6736L181.817 44.2864ZM192.941 39.4175C193.948 29.1335 195.853 20.4005 198.638 13.2008L196.773 12.4792C193.905 19.8928 191.97 28.8132 190.95 39.2225L192.941 39.4175ZM198.637 13.2044C201.483 5.93098 205.003 2.8 208.986 2.8V0.799995C203.688 0.799995 199.688 5.02901 196.774 12.4756L198.637 13.2044ZM208.986 2.8C210.916 2.8 212.522 3.64953 213.853 5.5032L215.478 4.33679C213.822 2.03046 211.642 0.799995 208.986 0.799995V2.8ZM213.863 5.5167C215.224 7.34613 215.986 10.2381 215.986 14.36H217.986C217.986 10.0553 217.201 6.65387 215.468 4.3233L213.863 5.5167ZM215.986 14.36C215.986 20.1774 214.555 27.0429 211.647 34.9757L213.525 35.6643C216.482 27.5971 217.986 20.4893 217.986 14.36H215.986ZM211.647 34.9757C208.736 42.9135 204.843 51.0737 199.961 59.4568L201.69 60.4632C206.622 51.9929 210.568 43.7265 213.525 35.6643L211.647 34.9757ZM199.828 60.0288C200.043 63.1442 200.504 65.5341 201.298 67.0614L203.073 66.1386C202.48 64.9992 202.035 62.9624 201.823 59.8912L199.828 60.0288ZM201.313 67.0886C202.163 68.6071 203.375 69.6 204.986 69.6V67.6C204.356 67.6 203.701 67.2596 203.058 66.1114L201.313 67.0886ZM204.986 69.6C206.739 69.6 208.428 68.8177 210.036 67.4393L208.735 65.9207C207.356 67.1023 206.112 67.6 204.986 67.6V69.6ZM210.036 67.4393C211.594 66.104 213.637 63.9191 216.152 60.9229L214.62 59.6371C212.121 62.6142 210.164 64.696 208.735 65.9207L210.036 67.4393ZM216.145 60.9308C216.642 60.3504 217.103 60.16 217.546 60.16V58.16C216.388 58.16 215.409 58.7162 214.626 59.6292L216.145 60.9308ZM208.106 8.64C207.533 8.64 207.052 8.90089 206.679 9.23475C206.312 9.56339 205.995 10.0077 205.713 10.5122C205.148 11.5224 204.616 12.9723 204.103 14.8109L206.029 15.3491C206.528 13.5611 207.01 12.2909 207.459 11.4878C207.683 11.0857 207.873 10.8499 208.012 10.7252C208.146 10.6058 208.172 10.64 208.106 10.64V8.64ZM204.104 14.8072C203.071 18.4472 202.184 23.1947 201.434 29.0326L203.417 29.2874C204.161 23.4986 205.033 18.8594 206.028 15.3528L204.104 14.8072ZM201.433 29.0416C200.736 34.8793 200.228 40.9821 199.907 47.3496L201.904 47.4504C202.223 41.1245 202.728 35.0673 203.419 29.2784L201.433 29.0416ZM201.814 47.8172C207.807 34.7625 210.866 24.151 210.866 16.04H208.866C208.866 23.7157 205.951 34.0108 199.997 46.9828L201.814 47.8172ZM210.866 16.04C210.866 13.9712 210.677 12.2733 210.254 11.0038L208.357 11.6362C208.68 12.6067 208.866 14.0554 208.866 16.04H210.866ZM210.267 11.0453C210.094 10.4406 209.876 9.89431 209.579 9.47876C209.278 9.05731 208.793 8.64 208.106 8.64V10.64C207.898 10.64 207.853 10.5027 207.952 10.6412C208.055 10.7857 208.197 11.0794 208.344 11.5947L210.267 11.0453ZM185.066 70.32C186.359 70.32 187.585 69.8055 188.725 68.9049L187.486 67.3351C186.6 68.0345 185.799 68.32 185.066 68.32V70.32ZM188.75 68.8849C189.871 67.9411 191.213 66.3014 192.769 64.0482L191.123 62.9118C189.585 65.1386 188.367 66.5922 187.461 67.3551L188.75 68.8849ZM192.929 63.2979C192.409 60.4894 192.146 57.325 192.146 53.8H190.146C190.146 57.4216 190.416 60.7106 190.962 63.6621L192.929 63.2979ZM192.146 53.8C192.146 52.54 192.198 50.476 192.305 47.597L190.306 47.523C190.2 50.404 190.146 52.5 190.146 53.8H192.146ZM191.01 46.6046C187.814 47.5924 185.184 49.7363 183.107 52.9355L184.784 54.0245C186.654 51.1437 188.93 49.3409 191.601 48.5154L191.01 46.6046ZM183.104 52.9392C181.077 56.0933 180.066 59.6156 180.066 63.48H182.066C182.066 59.9844 182.974 56.84 184.787 54.0208L183.104 52.9392ZM180.066 63.48C180.066 65.5097 180.408 67.2088 181.241 68.4251C182.12 69.7094 183.452 70.32 185.066 70.32V68.32C184.012 68.32 183.344 67.9572 182.891 67.2949C182.39 66.5645 182.066 65.3436 182.066 63.48H180.066ZM214.637 74.2L213.701 74.5511L213.705 74.5613L213.709 74.5714L214.637 74.2ZM216.398 44.2L217.351 44.5015L217.353 44.4964L216.398 44.2ZM218.717 40.84L219.263 41.6785L219.272 41.6721L218.717 40.84ZM225.038 47.4L224.072 47.1413L224.069 47.1493L224.067 47.1575L225.038 47.4ZM222.958 58.92L221.962 58.8295L223.891 59.2783L222.958 58.92ZM228.878 47.72L228.081 47.1153L228.878 47.72ZM235.277 41.56L234.779 40.693L234.77 40.6986L235.277 41.56ZM245.598 49.96L246.578 50.1561L246.58 50.1467L246.582 50.1372L245.598 49.96ZM252.717 53.24L252.01 52.5329L252.717 53.24ZM256.478 53.16L255.614 53.6639L255.639 53.7074L255.669 53.7482L256.478 53.16ZM255.518 60.2L256.237 60.8946L256.242 60.8897L255.518 60.2ZM250.238 64.2L250.713 65.0797L250.721 65.0752L250.238 64.2ZM237.438 63.64L236.73 64.3471L236.737 64.3535L236.743 64.3598L237.438 63.64ZM235.518 55.4L236.498 55.5961L236.508 55.5482L236.513 55.4995L235.518 55.4ZM231.598 54.68L230.792 54.0876L230.789 54.0918L231.598 54.68ZM227.758 61.72L226.841 61.3201L227.758 61.72ZM224.637 71L223.666 70.7612L223.664 70.7721L224.637 71ZM222.557 76.12L221.808 75.4584L221.805 75.4615L222.557 76.12ZM218.958 76.4C218.129 76.4 217.478 76.1858 216.953 75.7964C216.418 75.4006 215.943 74.771 215.566 73.8286L213.709 74.5714C214.185 75.7623 214.857 76.7327 215.762 77.4036C216.677 78.0809 217.759 78.4 218.958 78.4V76.4ZM215.574 73.8489C214.841 71.8936 214.438 68.6331 214.438 63.96H212.438C212.438 68.6736 212.834 72.2397 213.701 74.5511L215.574 73.8489ZM214.438 63.96C214.438 57.1229 215.41 50.6383 217.351 44.5015L215.444 43.8985C213.438 50.2417 212.438 56.9305 212.438 63.96H214.438ZM217.353 44.4964C217.783 43.1105 218.44 42.213 219.262 41.6784L218.173 40.0016C216.862 40.8536 215.972 42.1961 215.442 43.9036L217.353 44.4964ZM219.272 41.6721C220.168 41.0749 221.495 40.72 223.357 40.72V38.72C221.274 38.72 219.507 39.1118 218.163 40.0079L219.272 41.6721ZM223.357 40.72C224.404 40.72 224.899 40.8625 225.068 40.968L226.128 39.272C225.443 38.8442 224.444 38.72 223.357 38.72V40.72ZM225.068 40.968C225.076 40.9736 225.238 41.0585 225.238 41.64H227.238C227.238 40.7281 226.972 39.7997 226.128 39.272L225.068 40.968ZM225.238 41.64C225.238 41.9545 225.158 42.5595 224.959 43.516C224.764 44.4504 224.469 45.657 224.072 47.1413L226.003 47.6587C226.406 46.1563 226.711 44.9096 226.916 43.924C227.117 42.9605 227.238 42.1788 227.238 41.64H225.238ZM224.067 47.1575C223.531 49.3013 223.101 51.1841 222.777 52.8039L224.738 53.1961C225.054 51.6159 225.477 49.7654 226.008 47.6425L224.067 47.1575ZM222.777 52.8039C222.448 54.4503 222.177 56.4614 221.962 58.8295L223.953 59.0105C224.165 56.6852 224.427 54.7497 224.738 53.1961L222.777 52.8039ZM223.891 59.2783C225.629 54.7505 227.561 51.108 229.674 48.3247L228.081 47.1153C225.821 50.092 223.806 53.9162 222.024 58.5617L223.891 59.2783ZM229.674 48.3247C231.817 45.5016 233.859 43.5577 235.785 42.4214L234.77 40.6986C232.536 42.0156 230.311 44.1784 228.081 47.1153L229.674 48.3247ZM235.776 42.4269C237.815 41.2544 239.588 40.72 241.118 40.72V38.72C239.127 38.72 237.007 39.4122 234.779 40.6931L235.776 42.4269ZM241.118 40.72C242.697 40.72 243.697 41.1141 244.31 41.7271C244.923 42.3401 245.318 43.3408 245.318 44.92H247.318C247.318 43.0325 246.845 41.4332 245.725 40.3129C244.604 39.1925 243.005 38.72 241.118 38.72V40.72ZM245.318 44.92C245.318 45.5042 245.099 47.0844 244.613 49.7828L246.582 50.1372C247.056 47.5022 247.318 45.7225 247.318 44.92H245.318ZM244.617 49.7639C244.402 50.8366 244.24 51.7173 244.13 52.402C244.024 53.0655 243.958 53.6043 243.958 53.96H245.958C245.958 53.7823 245.998 53.3878 246.105 52.718C246.209 52.0693 246.366 51.2167 246.578 50.1561L244.617 49.7639ZM243.958 53.96C243.958 54.9822 244.135 55.9284 244.644 56.6412C245.197 57.4161 246.028 57.76 246.958 57.76V55.76C246.554 55.76 246.384 55.6373 246.271 55.4788C246.114 55.2583 245.958 54.8045 245.958 53.96H243.958ZM246.958 57.76C247.959 57.76 248.996 57.3707 250.039 56.7333C251.09 56.091 252.219 55.1526 253.425 53.9471L252.01 52.5329C250.869 53.6741 249.865 54.4957 248.996 55.0267C248.119 55.5626 247.449 55.76 246.958 55.76V57.76ZM253.425 53.9471C253.991 53.3803 254.471 53.2 254.878 53.2V51.2C253.79 51.2 252.83 51.713 252.01 52.5329L253.425 53.9471ZM254.878 53.2C255.186 53.2 255.405 53.3054 255.614 53.6639L257.341 52.6561C256.804 51.7346 255.955 51.2 254.878 51.2V53.2ZM255.669 53.7482C255.93 54.108 256.117 54.6764 256.117 55.56H258.117C258.117 54.4169 257.878 53.3853 257.286 52.5718L255.669 53.7482ZM256.117 55.56C256.117 57.3503 255.638 58.6236 254.793 59.5103L256.242 60.8897C257.53 59.5364 258.117 57.7164 258.117 55.56H256.117ZM254.798 59.5054C253.379 60.9752 251.7 62.2492 249.754 63.3248L250.721 65.0752C252.828 63.9108 254.669 62.5182 256.237 60.8946L254.798 59.5054ZM249.762 63.3203C247.934 64.3081 245.991 64.8 243.917 64.8V66.8C246.324 66.8 248.594 66.2252 250.713 65.0797L249.762 63.3203ZM243.917 64.8C241.254 64.8 239.38 64.1235 238.132 62.9202L236.743 64.3598C238.482 66.0365 240.928 66.8 243.917 66.8V64.8ZM238.145 62.9329C236.93 61.7178 236.277 60.0462 236.277 57.8H234.277C234.277 60.4605 235.065 62.6822 236.73 64.3471L238.145 62.9329ZM236.277 57.8C236.277 57.0671 236.351 56.3328 236.498 55.5961L234.537 55.2039C234.364 56.0672 234.277 56.9329 234.277 57.8H236.277ZM236.513 55.4995C236.619 54.4395 236.678 53.671 236.678 53.24H234.678C234.678 53.5557 234.63 54.2271 234.522 55.3005L236.513 55.4995ZM236.678 53.24C236.678 52.7298 236.595 52.17 236.282 51.7135C235.921 51.1893 235.369 50.96 234.798 50.96V52.96C234.823 52.96 234.797 52.9643 234.746 52.9398C234.691 52.913 234.652 52.874 234.633 52.8465C234.619 52.8256 234.632 52.8346 234.648 52.9034C234.664 52.9721 234.678 53.0808 234.678 53.24H236.678ZM234.798 50.96C234.038 50.96 233.341 51.3753 232.75 51.8781C232.133 52.4025 231.48 53.1513 230.792 54.0876L232.403 55.2724C233.048 54.3954 233.595 53.7842 234.045 53.4019C234.52 52.998 234.757 52.96 234.798 52.96V50.96ZM230.789 54.0918C229.451 55.9309 228.138 58.3482 226.841 61.3201L228.674 62.1199C229.937 59.2251 231.184 56.9491 232.406 55.2682L230.789 54.0918ZM226.841 61.3201C225.537 64.3078 224.479 67.4553 223.666 70.7612L225.609 71.2388C226.396 68.0381 227.418 64.9988 228.674 62.1199L226.841 61.3201ZM223.664 70.7721C223.081 73.2608 222.431 74.752 221.808 75.4584L223.307 76.7816C224.284 75.6746 225.02 73.7525 225.611 71.2279L223.664 70.7721ZM221.805 75.4615C221.322 76.0136 220.457 76.4 218.958 76.4V78.4C220.764 78.4 222.3 77.9331 223.31 76.7785L221.805 75.4615ZM251.924 74.36L251.111 74.9432L251.12 74.9551L251.129 74.9667L251.924 74.36ZM250.484 54.84L251.471 54.9992L251.471 54.9968L250.484 54.84ZM253.124 44.2L252.175 43.8838L252.174 43.8878L253.124 44.2ZM255.364 40.76L255.949 41.5707L255.364 40.76ZM262.324 40.28L261.665 41.0326L261.687 41.0516L261.71 41.0694L262.324 40.28ZM262.164 46.28L263.129 46.5409L263.133 46.5268L263.136 46.5126L262.164 46.28ZM260.884 51.64L259.903 51.4439L259.901 51.4529L260.884 51.64ZM259.684 65.24L258.81 65.7256L258.822 65.7482L258.836 65.77L259.684 65.24ZM264.004 63.48L264.797 64.0884L264.802 64.0822L264.807 64.0758L264.004 63.48ZM267.844 56.12L266.922 55.7333L266.918 55.7408L267.844 56.12ZM271.764 44.2L270.798 43.9423L270.797 43.9444L271.764 44.2ZM273.684 40.76L273.076 39.9656L273.065 39.9746L273.053 39.9839L273.684 40.76ZM280.164 40.68L279.364 41.28L279.392 41.3177L279.424 41.3527L280.164 40.68ZM280.644 47.88L281.635 48.0122L281.636 48.008L280.644 47.88ZM279.924 52.84L280.912 52.9944L279.924 52.84ZM278.644 62.2L279.637 62.3146L279.637 62.3125L278.644 62.2ZM276.884 76.12L276.156 75.4346L276.154 75.4361L276.884 76.12ZM268.724 75.88L267.905 76.4535L267.921 76.4771L267.939 76.4996L268.724 75.88ZM267.764 65.88L268.762 65.9326L266.792 65.644L267.764 65.88ZM263.684 74.44L262.947 73.7634L262.942 73.7688L262.937 73.7744L263.684 74.44ZM258.004 76.4C255.815 76.4 254.08 75.5371 252.719 73.7533L251.129 74.9667C252.861 77.2363 255.179 78.4 258.004 78.4V76.4ZM252.736 73.7768C251.406 71.9243 250.684 69.3016 250.684 65.8H248.684C248.684 69.5517 249.455 72.6357 251.111 74.9432L252.736 73.7768ZM250.684 65.8C250.684 61.8434 250.948 58.2443 251.471 54.9992L249.497 54.6808C248.953 58.049 248.684 61.7566 248.684 65.8H250.684ZM251.471 54.9968C251.995 51.6968 252.861 48.2024 254.074 44.5122L252.174 43.8878C250.933 47.6643 250.039 51.2632 249.496 54.6832L251.471 54.9968ZM254.072 44.5162C254.567 43.0337 255.217 42.0992 255.949 41.5707L254.778 39.9493C253.59 40.8075 252.748 42.1663 252.175 43.8838L254.072 44.5162ZM255.949 41.5707C256.652 41.063 257.913 40.72 259.924 40.72V38.72C257.774 38.72 255.995 39.0703 254.778 39.9493L255.949 41.5707ZM259.924 40.72C261.072 40.72 261.536 40.9194 261.665 41.0326L262.982 39.5274C262.258 38.8939 261.122 38.72 259.924 38.72V40.72ZM261.71 41.0694C261.891 41.21 262.044 41.444 262.044 41.96H264.044C264.044 40.9827 263.717 40.0966 262.938 39.4906L261.71 41.0694ZM262.044 41.96C262.044 41.9592 262.044 41.9671 262.043 41.9858C262.041 42.0039 262.039 42.0284 262.036 42.0603C262.029 42.1245 262.018 42.2085 262.001 42.3148C261.967 42.5275 261.916 42.808 261.844 43.1604C261.7 43.8643 261.483 44.8252 261.191 46.0474L263.136 46.5126C263.431 45.2815 263.654 44.2957 263.804 43.5596C263.945 42.8666 264.044 42.2942 264.044 41.96H262.044ZM261.198 46.0191C260.661 48.0088 260.228 49.8175 259.903 51.4439L261.864 51.8361C262.179 50.2625 262.6 48.4979 263.129 46.5409L261.198 46.0191ZM259.901 51.4529C258.838 57.0358 258.284 60.8628 258.284 62.84H260.284C260.284 61.0839 260.796 57.4442 261.866 51.8271L259.901 51.4529ZM258.284 62.84C258.284 63.9876 258.411 65.0089 258.81 65.7256L260.558 64.7544C260.423 64.5111 260.284 63.9324 260.284 62.84H258.284ZM258.836 65.77C259.318 66.5418 260.099 66.88 260.964 66.88V64.88C260.655 64.88 260.583 64.7915 260.532 64.71L258.836 65.77ZM260.964 66.88C261.69 66.88 262.361 66.5248 262.943 66.0649C263.541 65.5932 264.158 64.9219 264.797 64.0884L263.21 62.8716C262.622 63.6381 262.12 64.1668 261.704 64.4951C261.273 64.8352 261.038 64.88 260.964 64.88V66.88ZM264.807 64.0758C266.106 62.325 267.423 59.7835 268.769 56.4992L266.918 55.7408C265.598 58.9631 264.355 61.3284 263.201 62.8842L264.807 64.0758ZM268.766 56.5067C270.175 53.1459 271.496 49.1264 272.731 44.4556L270.797 43.9444C269.578 48.5536 268.286 52.4807 266.922 55.7333L268.766 56.5067ZM272.73 44.4577C273.128 42.964 273.689 42.0444 274.314 41.5361L273.053 39.9839C271.972 40.8623 271.253 42.236 270.798 43.9423L272.73 44.4577ZM274.291 41.5544C274.952 41.0494 276.031 40.72 277.684 40.72V38.72C275.816 38.72 274.229 39.0839 273.076 39.9656L274.291 41.5544ZM277.684 40.72C278.696 40.72 279.149 40.9935 279.364 41.28L280.964 40.08C280.219 39.0865 279.018 38.72 277.684 38.72V40.72ZM279.424 41.3527C279.719 41.6771 279.964 42.2911 279.964 43.4H281.964C281.964 42.0556 281.675 40.8562 280.904 40.0073L279.424 41.3527ZM279.964 43.4C279.964 44.6815 279.861 46.1311 279.652 47.752L281.636 48.008C281.853 46.3222 281.964 44.7851 281.964 43.4H279.964ZM279.653 47.7478C279.44 49.3399 279.201 50.9858 278.936 52.6856L280.912 52.9944C281.18 51.2808 281.421 49.6201 281.635 48.0122L279.653 47.7478ZM278.936 52.6856C278.401 56.11 277.972 59.2443 277.65 62.0875L279.637 62.3125C279.956 59.5024 280.38 56.3966 280.912 52.9944L278.936 52.6856ZM277.65 62.0854C277.325 64.9055 277.164 68.1184 277.164 71.72H279.164C279.164 68.175 279.323 65.0411 279.637 62.3146L277.65 62.0854ZM277.164 71.72C277.164 73.6433 276.753 74.8002 276.156 75.4346L277.612 76.8054C278.722 75.6264 279.164 73.85 279.164 71.72H277.164ZM276.154 75.4361C275.63 75.9949 274.634 76.4 272.884 76.4V78.4C274.867 78.4 276.537 77.9518 277.613 76.8039L276.154 75.4361ZM272.884 76.4C271.052 76.4 270.036 75.9285 269.509 75.2604L267.939 76.4996C269.011 77.8582 270.769 78.4 272.884 78.4V76.4ZM269.543 75.3065C269.286 74.9393 269.041 74.3244 268.867 73.3788C268.695 72.4453 268.604 71.2571 268.604 69.8H266.604C266.604 71.3296 266.699 72.648 266.9 73.7412C267.099 74.8223 267.415 75.754 267.905 76.4535L269.543 75.3065ZM268.604 69.8C268.604 69.2449 268.655 67.9664 268.762 65.9326L266.765 65.8274C266.659 67.847 266.604 69.1818 266.604 69.8H268.604ZM266.792 65.644C265.909 69.2798 264.607 71.957 262.947 73.7634L264.42 75.1166C266.387 72.9763 267.805 69.9469 268.736 66.116L266.792 65.644ZM262.937 73.7744C261.306 75.6037 259.665 76.4 258.004 76.4V78.4C260.396 78.4 262.542 77.2229 264.43 75.1056L262.937 73.7744ZM368.453 37.56L369.165 38.2613L369.171 38.2554L368.453 37.56ZM354.453 44.6L354.224 43.6265L354.188 45.5644L354.453 44.6ZM361.973 49.08L361.199 49.7144L361.208 49.7241L361.973 49.08ZM360.533 67.08L359.775 66.427L359.769 66.4346L360.533 67.08ZM349.013 74.28L349.323 75.2307L349.332 75.2277L349.013 74.28ZM324.293 76.52L324.392 75.525L323.331 75.4189L323.293 76.4843L324.293 76.52ZM322.372 79.88L321.853 79.0258L322.372 79.88ZM313.652 79.72L312.876 80.3506L312.888 80.3648L312.9 80.3785L313.652 79.72ZM312.772 75.96L313.77 76.0244L313.77 76.0242L312.772 75.96ZM315.573 52.52L316.558 52.6875L316.559 52.6865L315.573 52.52ZM320.853 28.76L319.89 28.4904L319.889 28.4906L320.853 28.76ZM323.092 25.96L322.663 25.0571L323.092 25.96ZM331.892 30.44L330.944 30.1238L331.892 30.44ZM327.733 47.4L328.714 47.5919L328.714 47.5905L327.733 47.4ZM324.772 67.72L323.777 67.6295L323.685 68.6329L324.689 68.7165L324.772 67.72ZM347.413 64.84L347.937 65.6917L347.94 65.6894L347.413 64.84ZM349.652 50.6L349.023 51.3768L349.033 51.3849L349.652 50.6ZM339.652 47.96L339.603 48.9588L339.611 48.9592L339.618 48.9594L339.652 47.96ZM337.413 47.16L336.665 47.8244L337.413 47.16ZM337.733 41.08L336.9 40.5253L337.733 41.08ZM341.253 39.56L341.224 38.5604L341.221 38.5605L341.253 39.56ZM351.492 37.88L351.181 36.9297L351.176 36.9313L351.492 37.88ZM358.772 33.64L359.49 34.3365L359.495 34.3313L359.5 34.326L358.772 33.64ZM356.853 19.88L356.34 20.7389L356.351 20.7454L356.853 19.88ZM326.293 19.4L326.553 20.3655L326.562 20.363L326.293 19.4ZM312.693 24.92L313.203 25.7799L313.207 25.7775L312.693 24.92ZM306.133 25.48L305.31 26.0492L305.336 26.0859L305.364 26.1202L306.133 25.48ZM306.212 19.48L305.359 18.9585L305.348 18.9762L305.338 18.9944L306.212 19.48ZM310.293 16.2L309.796 15.3317L309.794 15.3331L310.293 16.2ZM326.052 10.2L326.285 11.1726L326.052 10.2ZM366.133 12.92L366.698 12.0951L366.133 12.92ZM372.253 25.8C372.253 30.0695 370.756 33.7413 367.734 36.8646L369.171 38.2554C372.549 34.7654 374.253 30.5972 374.253 25.8H372.253ZM367.74 36.8588C364.713 39.9353 360.241 42.2138 354.224 43.6265L354.681 45.5735C360.931 44.1062 365.792 41.6913 369.165 38.2612L367.74 36.8588ZM354.188 45.5644C357.35 46.4314 359.656 47.8333 361.199 49.7143L362.746 48.4457C360.876 46.1667 358.168 44.582 354.717 43.6356L354.188 45.5644ZM361.208 49.7241C362.761 51.5692 363.533 53.6874 363.533 56.12H365.533C365.533 53.2193 364.597 50.6441 362.737 48.4359L361.208 49.7241ZM363.533 56.12C363.533 60.1019 362.28 63.5215 359.775 66.4271L361.29 67.7329C364.118 64.4519 365.533 60.5647 365.533 56.12H363.533ZM359.769 66.4346C357.305 69.3506 353.641 71.6658 348.693 73.3323L349.332 75.2277C354.517 73.4809 358.533 70.9961 361.296 67.7253L359.769 66.4346ZM348.702 73.3293C343.763 74.941 337.767 75.76 330.693 75.76V77.76C337.911 77.76 344.128 76.9257 349.323 75.2307L348.702 73.3293ZM330.693 75.76C328.041 75.76 325.945 75.6802 324.392 75.525L324.193 77.515C325.84 77.6798 328.011 77.76 330.693 77.76V75.76ZM323.293 76.4843C323.251 77.6579 322.778 78.4623 321.853 79.0258L322.892 80.7342C324.42 79.8043 325.227 78.3688 325.292 76.5557L323.293 76.4843ZM321.853 79.0258C320.827 79.6501 319.449 80 317.652 80V82C319.696 82 321.465 81.6032 322.892 80.7342L321.853 79.0258ZM317.652 80C315.829 80 314.864 79.5864 314.405 79.0615L312.9 80.3785C313.934 81.5603 315.636 82 317.652 82V80ZM314.429 79.0894C313.958 78.5104 313.672 77.5506 313.77 76.0244L311.775 75.8956C311.66 77.6761 311.96 79.2229 312.876 80.3506L314.429 79.0894ZM313.77 76.0242C314.248 68.5955 315.177 60.8168 316.558 52.6875L314.587 52.3525C313.195 60.5431 312.257 68.3911 311.775 75.8958L313.77 76.0242ZM316.559 52.6865C317.94 44.5061 319.692 36.6205 321.816 29.0294L319.889 28.4906C317.746 36.1529 315.979 44.1073 314.586 52.3535L316.559 52.6865ZM321.815 29.0296C322.121 27.9383 322.695 27.2567 323.522 26.8629L322.663 25.0571C321.25 25.7299 320.331 26.915 319.89 28.4904L321.815 29.0296ZM323.522 26.8629C324.461 26.416 325.765 26.16 327.492 26.16V24.16C325.594 24.16 323.964 24.4373 322.663 25.0571L323.522 26.8629ZM327.492 26.16C329.059 26.16 330.074 26.384 330.666 26.7135C330.946 26.8698 331.111 27.0383 331.209 27.2033C331.307 27.3668 331.372 27.5808 331.372 27.88H333.372C333.372 27.2725 333.235 26.6932 332.926 26.1767C332.618 25.6616 332.172 25.2635 331.639 24.9665C330.604 24.3894 329.179 24.16 327.492 24.16V26.16ZM331.372 27.88C331.372 28.4886 331.241 29.232 330.944 30.1238L332.841 30.7562C333.184 29.728 333.372 28.7647 333.372 27.88H331.372ZM330.944 30.1238C329.537 34.3429 328.141 40.0441 326.751 47.2095L328.714 47.5905C330.097 40.4626 331.474 34.8571 332.841 30.7562L330.944 30.1238ZM326.751 47.2081C325.359 54.3312 324.367 61.1385 323.777 67.6295L325.768 67.8105C326.352 61.3948 327.333 54.6554 328.714 47.5919L326.751 47.2081ZM324.689 68.7165C327.263 68.931 329.373 69.04 331.013 69.04V67.04C329.452 67.04 327.402 66.9357 324.856 66.7235L324.689 68.7165ZM331.013 69.04C338.532 69.04 344.229 67.9734 347.937 65.6917L346.888 63.9883C343.663 65.9732 338.426 67.04 331.013 67.04V69.04ZM347.94 65.6894C351.675 63.3694 353.693 60.3096 353.693 56.52H351.693C351.693 59.4504 350.19 61.9372 346.885 63.9906L347.94 65.6894ZM353.693 56.52C353.693 53.8338 352.511 51.583 350.272 49.8151L349.033 51.3849C350.847 52.817 351.693 54.5128 351.693 56.52H353.693ZM350.282 49.8232C348.047 48.0112 344.437 47.1225 339.687 46.9606L339.618 48.9594C344.255 49.1175 347.311 49.9888 349.023 51.3768L350.282 49.8232ZM339.702 46.9613C338.735 46.9129 338.321 46.6768 338.16 46.4956L336.665 47.8244C337.357 48.6031 338.437 48.9005 339.603 48.9588L339.702 46.9613ZM338.16 46.4956C337.974 46.2865 337.772 45.8125 337.772 44.84H335.772C335.772 46.0009 335.998 47.0735 336.665 47.8244L338.16 46.4956ZM337.772 44.84C337.772 43.425 338.066 42.3831 338.565 41.6347L336.9 40.5253C336.119 41.6969 335.772 43.1617 335.772 44.84H337.772ZM338.565 41.6347C338.951 41.0556 339.737 40.6078 341.284 40.5595L341.221 38.5605C339.355 38.6188 337.794 39.1844 336.9 40.5253L338.565 41.6347ZM341.281 40.5596C345.148 40.4507 348.661 39.8781 351.809 38.8287L351.176 36.9313C348.244 37.9086 344.93 38.456 341.224 38.5604L341.281 40.5596ZM351.804 38.8303C355.008 37.7806 357.589 36.2948 359.49 34.3365L358.055 32.9435C356.436 34.6119 354.164 35.9527 351.181 36.9297L351.804 38.8303ZM359.5 34.326C361.426 32.2831 362.413 29.881 362.413 27.16H360.413C360.413 29.3457 359.639 31.2635 358.045 32.954L359.5 34.326ZM362.413 27.16C362.413 23.6553 360.652 20.9243 357.354 19.0146L356.351 20.7454C359.133 22.3557 360.413 24.478 360.413 27.16H362.413ZM357.365 19.0212C354.091 17.0686 349.205 16.16 342.853 16.16V18.16C349.087 18.16 353.534 19.0648 356.34 20.7388L357.365 19.0212ZM342.853 16.16C337.057 16.16 331.447 16.9184 326.023 18.437L326.562 20.363C331.805 18.8949 337.234 18.16 342.853 18.16V16.16ZM326.032 18.4346C320.632 19.8925 316.008 21.7642 312.178 24.0625L313.207 25.7775C316.843 23.5958 321.286 21.7875 326.553 20.3654L326.032 18.4346ZM312.182 24.0601C310.535 25.0378 309.281 25.44 308.372 25.44V27.44C309.81 27.44 311.436 26.8289 313.203 25.7799L312.182 24.0601ZM308.372 25.44C307.659 25.44 307.214 25.2157 306.901 24.8398L305.364 26.1202C306.118 27.0243 307.166 27.44 308.372 27.44V25.44ZM306.955 24.9108C306.612 24.416 306.413 23.7717 306.413 22.92H304.413C304.413 24.095 304.693 25.1573 305.31 26.0492L306.955 24.9108ZM306.413 22.92C306.413 21.7204 306.652 20.7484 307.087 19.9656L305.338 18.9944C304.707 20.1316 304.413 21.4529 304.413 22.92H306.413ZM307.066 20.0014C307.51 19.2751 308.669 18.2871 310.791 17.0669L309.794 15.3331C307.649 16.5662 306.089 17.7649 305.359 18.9585L307.066 20.0014ZM310.789 17.0682C315.172 14.5637 320.333 12.5948 326.285 11.1726L325.82 9.22738C319.719 10.6852 314.373 12.7163 309.796 15.3318L310.789 17.0682ZM326.285 11.1726C332.234 9.75109 338.316 9.04 344.533 9.04V7.04C338.162 7.04 331.924 7.7689 325.82 9.22738L326.285 11.1726ZM344.533 9.04C354.107 9.04 361.066 10.6595 365.567 13.7448L366.698 12.0951C361.706 8.67384 354.265 7.04 344.533 7.04V9.04ZM365.567 13.7448C370.067 16.8291 372.253 20.8261 372.253 25.8H374.253C374.253 20.1073 371.691 15.5176 366.698 12.0951L365.567 13.7448ZM405.744 60.12L404.881 60.6239L404.896 60.6498L404.912 60.6747L405.744 60.12ZM404.864 67.72L404.108 67.0664L404.098 67.078L404.088 67.09L404.864 67.72ZM397.344 74.68L396.79 73.8479L396.782 73.8531L397.344 74.68ZM377.744 71L376.859 71.4649L376.864 71.4734L377.744 71ZM376.864 32.2L375.885 31.9991L375.884 32.0051L376.864 32.2ZM384.304 10.76L383.429 10.2757L383.426 10.2817L384.304 10.76ZM402.064 5.4L401.207 5.91449L401.214 5.92577L401.221 5.93687L402.064 5.4ZM399.024 37.64L398.103 37.2525L399.024 37.64ZM384.704 62.52L383.898 61.9284L383.647 62.2703L383.719 62.6883L384.704 62.52ZM386.544 67.24L385.797 67.9044L385.806 67.915L385.816 67.9254L386.544 67.24ZM395.664 66.76L396.26 67.5631L396.268 67.557L396.277 67.5507L395.664 66.76ZM401.984 60.28L401.225 59.6292L401.219 59.6359L401.984 60.28ZM390.144 16.36L389.2 16.0302L390.144 16.36ZM386.064 32.84L385.08 32.6639L386.064 32.84ZM384.144 51.72L383.145 51.7023L383.079 55.4031L384.999 52.2388L384.144 51.72ZM393.184 33L394.126 33.3379L394.126 33.3353L393.184 33ZM404.144 60.16C404.453 60.16 404.671 60.2654 404.881 60.6239L406.608 59.6161C406.071 58.6946 405.222 58.16 404.144 58.16V60.16ZM404.912 60.6747C405.19 61.0914 405.384 61.752 405.384 62.76H407.384C407.384 61.528 407.152 60.4286 406.576 59.5653L404.912 60.6747ZM405.384 62.76C405.384 64.7436 404.914 66.133 404.108 67.0664L405.621 68.3736C406.842 66.9604 407.384 65.0431 407.384 62.76H405.384ZM404.088 67.09C401.851 69.8473 399.417 72.0963 396.79 73.8479L397.899 75.512C400.712 73.637 403.291 71.2461 405.641 68.35L404.088 67.09ZM396.782 73.8531C394.291 75.5469 391.45 76.4 388.224 76.4V78.4C391.826 78.4 395.064 77.4398 397.907 75.5069L396.782 73.8531ZM388.224 76.4C386.034 76.4 384.173 75.904 382.606 74.9466C381.036 73.9881 379.703 72.5324 378.625 70.5266L376.864 71.4734C378.079 73.7343 379.639 75.4786 381.563 76.6534C383.489 77.8293 385.721 78.4 388.224 78.4V76.4ZM378.63 70.5352C376.489 66.4581 375.384 61.1132 375.384 54.44H373.384C373.384 61.3134 374.519 67.0085 376.859 71.4648L378.63 70.5352ZM375.384 54.44C375.384 48.015 376.201 40.6689 377.845 32.3949L375.884 32.0051C374.221 40.3711 373.384 47.8517 373.384 54.44H375.384ZM377.844 32.4009C379.535 24.1549 381.987 17.1062 385.183 11.2383L383.426 10.2817C380.115 16.3604 377.607 23.6051 375.885 31.9991L377.844 32.4009ZM385.179 11.2443C388.407 5.41304 392.059 2.8 396.064 2.8V0.799995C391.003 0.799995 386.815 4.16028 383.429 10.2757L385.179 11.2443ZM396.064 2.8C398.235 2.8 399.927 3.78181 401.207 5.91449L402.922 4.8855C401.321 2.21818 399.013 0.799995 396.064 0.799995V2.8ZM401.221 5.93687C402.568 8.05425 403.304 11.2209 403.304 15.56H405.304C405.304 11.0457 404.547 7.43908 402.908 4.86312L401.221 5.93687ZM403.304 15.56C403.304 21.7293 401.591 28.953 398.103 37.2525L399.946 38.0275C403.497 29.5803 405.304 22.0841 405.304 15.56H403.304ZM398.103 37.2525C394.616 45.5453 389.884 53.7708 383.898 61.9284L385.511 63.1116C391.578 54.8425 396.392 46.4813 399.946 38.0275L398.103 37.2525ZM383.719 62.6883C384.103 64.9415 384.759 66.7362 385.797 67.9044L387.292 66.5756C386.624 65.8238 386.052 64.4718 385.69 62.3517L383.719 62.6883ZM385.816 67.9254C386.881 69.0567 388.277 69.6 389.904 69.6V67.6C388.759 67.6 387.914 67.2366 387.273 66.5546L385.816 67.9254ZM389.904 69.6C392.291 69.6 394.423 68.9258 396.26 67.5631L395.069 65.9569C393.599 67.0475 391.891 67.6 389.904 67.6V69.6ZM396.277 67.5507C398.015 66.2045 400.177 63.9791 402.749 60.9241L401.219 59.6359C398.672 62.6609 396.62 64.7555 395.052 65.9693L396.277 67.5507ZM402.744 60.9308C403.241 60.3504 403.702 60.16 404.144 60.16V58.16C402.987 58.16 402.008 58.7162 401.225 59.6292L402.744 60.9308ZM394.304 8.72C393.682 8.72 393.144 9.00235 392.708 9.37191C392.273 9.74039 391.873 10.2493 391.497 10.8491C390.745 12.0501 389.982 13.7926 389.2 16.0302L391.088 16.6898C391.853 14.5007 392.558 12.9232 393.192 11.9109C393.509 11.4041 393.782 11.0829 394.001 10.8981C394.107 10.8082 394.186 10.7624 394.237 10.7401C394.262 10.7293 394.279 10.7244 394.289 10.7222C394.299 10.72 394.303 10.72 394.304 10.72V8.72ZM389.2 16.0302C387.631 20.5229 386.259 26.0715 385.08 32.6639L387.049 33.0161C388.216 26.4885 389.565 21.0504 391.088 16.6898L389.2 16.0302ZM385.08 32.6639C383.898 39.2708 383.252 45.6173 383.145 51.7023L385.144 51.7377C385.25 45.7694 385.884 39.5292 387.049 33.0161L385.08 32.6639ZM384.999 52.2388C388.817 45.9472 391.861 39.6469 394.126 33.3379L392.243 32.6621C390.028 38.8331 387.045 45.0128 383.289 51.2012L384.999 52.2388ZM394.126 33.3353C396.394 26.9641 397.544 21.1154 397.544 15.8H395.544C395.544 20.8313 394.455 26.4492 392.242 32.6647L394.126 33.3353ZM397.544 15.8C397.544 13.7401 397.358 12.0768 396.923 10.8943C396.703 10.297 396.395 9.75671 395.955 9.35846C395.494 8.94088 394.929 8.72 394.304 8.72V10.72C394.427 10.72 394.515 10.7524 394.613 10.8415C394.733 10.95 394.893 11.1697 395.046 11.5857C395.357 12.4299 395.544 13.8066 395.544 15.8H397.544ZM442.318 53.48L441.438 53.9541L442.318 53.48ZM440.558 60.68L440.262 59.7249L440.245 59.7302L440.228 59.7361L440.558 60.68ZM429.998 62.6L429.956 61.6009L429.192 61.6327L429.023 62.3794L429.998 62.6ZM423.998 73.4L424.664 74.146L424.671 74.1393L423.998 73.4ZM405.598 75.08L405.03 75.9029L405.039 75.9091L405.598 75.08ZM401.038 49.8L401.936 50.2411L401.938 50.2352L401.038 49.8ZM407.438 42.36L407.981 43.1996L407.993 43.192L407.438 42.36ZM426.238 43.88L425.483 44.5355L425.49 44.5431L425.496 44.5505L426.238 43.88ZM430.638 54.2L429.643 54.3033L429.743 55.2592L430.702 55.198L430.638 54.2ZM439.598 52.6L439.356 51.6298L439.345 51.6325L439.598 52.6ZM418.878 66.84L418.143 66.1617L418.136 66.1695L418.129 66.1774L418.878 66.84ZM421.438 60.84L422.425 61.0011L422.528 60.3705L421.999 60.0121L421.438 60.84ZM417.598 56.44L416.693 56.8658L416.698 56.8766L416.704 56.8872L417.598 56.44ZM416.558 48.12L417.541 48.3043L417.763 47.12H416.558V48.12ZM410.798 51.24L409.976 50.6708L409.973 50.6753L410.798 51.24ZM410.398 66.6L409.588 67.1865L409.595 67.1955L409.601 67.2044L410.398 66.6ZM440.718 53.44C440.987 53.44 441.21 53.5312 441.438 53.9541L443.199 53.0059C442.68 52.0422 441.836 51.44 440.718 51.44V53.44ZM441.438 53.9541C441.71 54.4593 441.878 55.1627 441.878 56.12H443.878C443.878 54.9439 443.673 53.8874 443.199 53.0059L441.438 53.9541ZM441.878 56.12C441.878 57.3148 441.695 58.1598 441.407 58.7265C441.135 59.2602 440.762 59.5696 440.262 59.7249L440.855 61.6351C441.901 61.3104 442.688 60.6198 443.189 59.6335C443.674 58.6802 443.878 57.4852 443.878 56.12H441.878ZM440.228 59.7361C437.132 60.8196 433.711 61.4444 429.956 61.6009L430.04 63.5991C433.965 63.4356 437.584 62.7804 440.888 61.6239L440.228 59.7361ZM429.023 62.3794C428.048 66.688 426.14 70.0969 423.325 72.6607L424.671 74.1393C427.83 71.2631 429.921 67.472 430.973 62.8206L429.023 62.3794ZM423.332 72.6541C420.517 75.1674 417.364 76.4 413.838 76.4V78.4C417.885 78.4 421.506 76.966 424.664 74.1459L423.332 72.6541ZM413.838 76.4C410.805 76.4 408.261 75.6695 406.157 74.2509L405.039 75.9091C407.522 77.5838 410.471 78.4 413.838 78.4V76.4ZM406.166 74.2571C404.08 72.8163 402.488 70.9056 401.387 68.5033L399.569 69.3367C400.815 72.0544 402.637 74.2503 405.03 75.9029L406.166 74.2571ZM401.387 68.5033C400.277 66.0819 399.718 63.4517 399.718 60.6H397.718C397.718 63.7216 398.332 66.6381 399.569 69.3367L401.387 68.5033ZM399.718 60.6C399.718 56.6758 400.466 53.2306 401.936 50.2411L400.141 49.3589C398.517 52.6627 397.718 56.4176 397.718 60.6H399.718ZM401.938 50.2352C403.413 47.1836 405.43 44.8505 407.981 43.1996L406.895 41.5204C404.006 43.3895 401.756 46.0164 400.138 49.3648L401.938 50.2352ZM407.993 43.192C410.547 41.4896 413.366 40.64 416.478 40.64V38.64C412.976 38.64 409.77 39.6038 406.883 41.5279L407.993 43.192ZM416.478 40.64C420.269 40.64 423.237 41.9473 425.483 44.5355L426.993 43.2245C424.333 40.1593 420.794 38.64 416.478 38.64V40.64ZM425.496 44.5505C427.846 47.15 429.236 50.3846 429.643 54.3033L431.633 54.0967C431.187 49.8021 429.644 46.1567 426.98 43.2095L425.496 44.5505ZM430.702 55.198C433.293 55.0326 436.346 54.4841 439.851 53.5675L439.345 51.6325C435.917 52.5292 432.997 53.0474 430.574 53.202L430.702 55.198ZM439.841 53.5701C440.215 53.4765 440.504 53.44 440.718 53.44V51.44C440.292 51.44 439.834 51.5102 439.356 51.6299L439.841 53.5701ZM414.478 69.92C416.497 69.92 418.229 69.0833 419.627 67.5026L418.129 66.1774C417.074 67.37 415.872 67.92 414.478 67.92V69.92ZM419.613 67.5183C421.069 65.9405 421.979 63.7329 422.425 61.0011L420.451 60.6789C420.044 63.1738 419.247 64.9662 418.143 66.1617L419.613 67.5183ZM421.999 60.0121C420.49 58.9898 419.324 57.6552 418.493 55.9928L416.704 56.8872C417.686 58.8515 419.08 60.4502 420.877 61.6679L421.999 60.0121ZM418.503 56.0142C417.713 54.3356 417.318 52.5612 417.318 50.68H415.318C415.318 52.8522 415.777 54.9177 416.693 56.8658L418.503 56.0142ZM417.318 50.68C417.318 49.8896 417.392 49.0979 417.541 48.3043L415.575 47.9357C415.404 48.8487 415.318 49.7638 415.318 50.68H417.318ZM416.558 47.12H416.158V49.12H416.558V47.12ZM416.158 47.12C413.633 47.12 411.563 48.3784 409.976 50.6708L411.62 51.8092C412.913 49.9416 414.417 49.12 416.158 49.12V47.12ZM409.973 50.6753C408.427 52.9342 407.718 56.0433 407.718 59.88H409.718C409.718 56.2501 410.396 53.5992 411.623 51.8047L409.973 50.6753ZM407.718 59.88C407.718 62.9181 408.294 65.3998 409.588 67.1865L411.208 66.0135C410.262 64.7068 409.718 62.7086 409.718 59.88H407.718ZM409.601 67.2044C410.91 68.93 412.54 69.92 414.478 69.92V67.92C413.323 67.92 412.232 67.3634 411.195 65.9956L409.601 67.2044ZM465.932 43L465.307 43.7809L465.349 43.8146L465.395 43.8437L465.932 43ZM466.732 46.84L465.742 46.6986L465.74 46.712L466.732 46.84ZM464.732 59.64L465.717 59.8099L465.719 59.8007L464.732 59.64ZM463.212 68.84L464.201 68.9857L464.202 68.9814L463.212 68.84ZM454.972 101.4L454.055 101L454.052 101.008L454.972 101.4ZM434.572 110.84L435.279 110.133L435.273 110.127L435.268 110.122L434.572 110.84ZM436.492 92.04L435.669 91.4713L435.666 91.476L436.492 92.04ZM453.292 76.04L453.903 76.8313L454.219 76.587L454.28 76.1921L453.292 76.04ZM453.772 72.92L454.76 73.0721L452.926 72.3872L453.772 72.92ZM450.172 76.28L450.632 77.1678L450.644 77.1615L450.172 76.28ZM437.932 73.8L438.704 73.1649L437.932 73.8ZM437.932 52.28L438.819 52.7421L438.821 52.7371L437.932 52.28ZM445.772 43.08L446.348 43.8973L446.351 43.8955L445.772 43.08ZM458.572 40.28L457.783 40.8939L457.821 40.9431L457.865 40.9871L458.572 40.28ZM459.612 42.68L458.637 42.9016L458.855 43.8613L459.818 43.6585L459.612 42.68ZM452.252 67.08L453.052 67.68L452.252 67.08ZM454.652 60.68L453.669 60.496L453.667 60.5095L454.652 60.68ZM457.212 47L458.195 47.1839L458.422 45.9702L457.188 46.0003L457.212 47ZM451.132 49.56L451.783 50.3193L451.789 50.314L451.795 50.3086L451.132 49.56ZM446.652 55.96L447.574 56.3472L446.652 55.96ZM445.932 68.12L445.151 68.7447L445.163 68.7601L445.176 68.7749L445.932 68.12ZM446.572 100.84L445.689 100.369L445.683 100.381L446.572 100.84ZM451.452 85.56L452.428 85.7761L453.076 82.851L450.801 84.8007L451.452 85.56ZM442.572 95.08L443.414 95.62L442.572 95.08ZM440.332 104.76L439.454 105.239L439.47 105.268L439.488 105.297L440.332 104.76ZM463.132 43.36C464.423 43.36 465.055 43.5793 465.307 43.7809L466.557 42.2191C465.742 41.5673 464.508 41.36 463.132 41.36V43.36ZM465.395 43.8437C465.538 43.9343 465.812 44.2502 465.812 45.32H467.812C467.812 44.0432 467.5 42.8123 466.469 42.1563L465.395 43.8437ZM465.812 45.32C465.812 45.9404 465.786 46.3932 465.742 46.6986L467.722 46.9814C467.785 46.5401 467.812 45.9796 467.812 45.32H465.812ZM465.74 46.712C465.529 48.3451 464.866 52.5927 463.745 59.4793L465.719 59.8007C466.838 52.9273 467.508 48.6415 467.724 46.968L465.74 46.712ZM463.746 59.4701C462.947 64.1073 462.438 67.1885 462.222 68.6986L464.202 68.9814C464.413 67.5049 464.917 64.4527 465.717 59.8099L463.746 59.4701ZM462.223 68.6943C460.202 82.4127 457.472 93.1683 454.055 101L455.888 101.8C459.405 93.7384 462.168 82.7873 464.201 68.9857L462.223 68.6943ZM454.052 101.008C450.704 108.854 446.38 112.4 441.212 112.4V114.4C447.564 114.4 452.413 109.946 455.892 101.792L454.052 101.008ZM441.212 112.4C438.72 112.4 436.774 111.628 435.279 110.133L433.865 111.547C435.783 113.466 438.263 114.4 441.212 114.4V112.4ZM435.268 110.122C433.784 108.685 433.012 106.772 433.012 104.28H431.012C431.012 107.228 431.946 109.689 433.876 111.558L435.268 110.122ZM433.012 104.28C433.012 100.76 434.401 96.8751 437.318 92.604L435.666 91.476C432.61 95.9516 431.012 100.227 431.012 104.28H433.012ZM437.314 92.6087C440.21 88.4205 445.708 83.1639 453.903 76.8313L452.68 75.2487C444.449 81.6094 438.747 87.0195 435.669 91.4713L437.314 92.6087ZM454.28 76.1921L454.76 73.0721L452.784 72.7679L452.303 75.8879L454.28 76.1921ZM452.926 72.3872C452.111 73.6812 451.039 74.6807 449.7 75.3985L450.644 77.1615C452.291 76.2793 453.62 75.0388 454.618 73.4528L452.926 72.3872ZM449.712 75.3922C448.396 76.0746 447.112 76.4 445.852 76.4V78.4C447.471 78.4 449.068 77.9787 450.632 77.1678L449.712 75.3922ZM445.852 76.4C442.822 76.4 440.474 75.3174 438.704 73.1649L437.159 74.4351C439.336 77.0826 442.268 78.4 445.852 78.4V76.4ZM438.704 73.1649C436.912 70.9854 435.972 68.0818 435.972 64.36H433.972C433.972 68.4249 435.005 71.8146 437.159 74.4351L438.704 73.1649ZM435.972 64.36C435.972 60.2544 436.92 56.3862 438.819 52.7421L437.045 51.8179C434.997 55.7471 433.972 59.9323 433.972 64.36H435.972ZM438.821 52.7371C440.727 49.0283 443.238 46.0899 446.348 43.8973L445.196 42.2627C441.799 44.6568 439.083 47.8517 437.042 51.8229L438.821 52.7371ZM446.351 43.8955C449.506 41.6561 452.8 40.56 456.252 40.56V38.56C452.343 38.56 448.651 39.8106 445.193 42.2645L446.351 43.8955ZM456.252 40.56C457.38 40.56 457.716 40.8089 457.783 40.8939L459.361 39.6661C458.681 38.7911 457.47 38.56 456.252 38.56V40.56ZM457.865 40.9871C458.08 41.2024 458.378 41.7617 458.637 42.9016L460.587 42.4584C460.313 41.2516 459.917 40.211 459.279 39.5729L457.865 40.9871ZM459.818 43.6585C460.747 43.4629 461.849 43.36 463.132 43.36V41.36C461.748 41.36 460.503 41.4705 459.406 41.7014L459.818 43.6585ZM448.732 70.32C450.411 70.32 451.845 69.2898 453.052 67.68L451.452 66.48C450.419 67.8569 449.506 68.32 448.732 68.32V70.32ZM453.052 67.68C454.303 66.0122 455.143 63.7073 455.637 60.8505L453.667 60.5095C453.201 63.1994 452.441 65.1611 451.452 66.48L453.052 67.68ZM455.635 60.8639L458.195 47.1839L456.229 46.8161L453.669 60.4961L455.635 60.8639ZM457.188 46.0003C454.732 46.0602 452.486 47.0249 450.469 48.8114L451.795 50.3086C453.511 48.7884 455.318 48.0465 457.236 47.9997L457.188 46.0003ZM450.481 48.8007C448.477 50.5184 446.9 52.7879 445.73 55.5728L447.574 56.3472C448.644 53.7988 450.053 51.8016 451.783 50.3193L450.481 48.8007ZM445.73 55.5728C444.557 58.3661 443.972 61.3248 443.972 64.44H445.972C445.972 61.5819 446.507 58.8873 447.574 56.3472L445.73 55.5728ZM443.972 64.44C443.972 66.1908 444.305 67.6874 445.151 68.7447L446.713 67.4953C446.279 66.9526 445.972 65.9959 445.972 64.44H443.972ZM445.176 68.7749C446.081 69.8194 447.304 70.32 448.732 70.32V68.32C447.813 68.32 447.169 68.0206 446.688 67.4651L445.176 68.7749ZM442.092 106.64C443.17 106.64 444.124 106 444.943 105.122C445.779 104.226 446.615 102.935 447.46 101.299L445.683 100.381C444.875 101.945 444.138 103.054 443.481 103.758C442.807 104.48 442.347 104.64 442.092 104.64V106.64ZM447.454 101.311C449.227 97.986 450.877 92.7831 452.428 85.7761L450.476 85.3439C448.933 92.3103 447.33 97.294 445.69 100.369L447.454 101.311ZM450.801 84.8007C446.66 88.3505 443.618 91.597 441.73 94.54L443.414 95.62C445.152 92.9097 448.031 89.8095 452.103 86.3193L450.801 84.8007ZM441.73 94.54C439.868 97.443 438.852 100.115 438.852 102.52H440.852C440.852 100.659 441.649 98.3703 443.414 95.62L441.73 94.54ZM438.852 102.52C438.852 103.537 439.03 104.462 439.454 105.239L441.21 104.281C440.993 103.884 440.852 103.316 440.852 102.52H438.852ZM439.488 105.297C440.075 106.22 441.01 106.64 442.092 106.64V104.64C441.573 104.64 441.335 104.474 441.176 104.223L439.488 105.297ZM480.039 77.24L479.374 77.9874L479.381 77.9934L479.388 77.9993L480.039 77.24ZM479.399 69.32L480.106 70.0271L479.399 69.32ZM486.279 68.04L486.105 69.0248L486.137 69.0303L486.168 69.0339L486.279 68.04ZM488.439 68.28L488.328 69.2739L489.483 69.4021L489.438 68.2416L488.439 68.28ZM487.479 64.36L486.562 64.7587L486.569 64.7752L486.577 64.7915L487.479 64.36ZM485.399 60.84L484.59 61.4282L484.597 61.4372L484.603 61.446L485.399 60.84ZM482.999 57.8L483.751 57.1415L482.791 56.0445L482.113 57.3349L482.999 57.8ZM478.039 65.64L477.256 65.0178L477.251 65.024L477.246 65.0303L478.039 65.64ZM472.759 71.56L472.062 70.8429L472.052 70.8529L472.759 71.56ZM467.639 72.12L466.871 72.7602L466.884 72.7767L466.899 72.7927L467.639 72.12ZM467.959 66.84L468.731 67.4757L468.735 67.4706L467.959 66.84ZM468.999 65.56L469.775 66.1906L469.776 66.1889L468.999 65.56ZM475.639 56.6L476.482 57.1369L476.488 57.1274L475.639 56.6ZM478.519 51.08L477.615 50.6509L477.611 50.6602L477.607 50.6696L478.519 51.08ZM482.439 42.36L483.356 42.7587L483.357 42.7564L482.439 42.36ZM491.879 39.24L492.293 38.3296L491.879 39.24ZM492.439 42.04L493.395 42.3341L492.439 42.04ZM491.559 44.12L490.678 43.6459L490.671 43.6592L490.664 43.6728L491.559 44.12ZM490.919 51.64L490.045 52.1256L490.055 52.1438L490.065 52.1615L490.919 51.64ZM493.559 55.24L494.354 54.634L494.344 54.621L494.334 54.6083L493.559 55.24ZM497.399 61L496.516 61.4706L496.526 61.4883L496.536 61.5057L497.399 61ZM497.159 72.52L496.274 72.0542L496.269 72.0632L497.159 72.52ZM492.839 77.32L493.388 78.1557L492.839 77.32ZM486.439 78.16C483.807 78.16 481.94 77.5522 480.69 76.4807L479.388 77.9993C481.125 79.4878 483.524 80.16 486.439 80.16V78.16ZM480.703 76.4926C479.429 75.3601 478.879 74.1764 478.879 72.92H476.879C476.879 74.8636 477.768 76.5599 479.374 77.9874L480.703 76.4926ZM478.879 72.92C478.879 71.8083 479.273 70.8599 480.106 70.0271L478.692 68.6129C477.498 69.8067 476.879 71.2584 476.879 72.92H478.879ZM480.106 70.0271C480.87 69.2629 482.069 68.8 483.879 68.8V66.8C481.742 66.8 479.954 67.3504 478.692 68.6129L480.106 70.0271ZM483.879 68.8C484.498 68.8 485.238 68.8718 486.105 69.0248L486.453 67.0552C485.506 66.8882 484.646 66.8 483.879 66.8V68.8ZM486.168 69.0339C487.128 69.1405 487.848 69.2206 488.328 69.2739L488.549 67.2861C488.069 67.2328 487.349 67.1528 486.389 67.0461L486.168 69.0339ZM489.438 68.2416C489.38 66.7215 489.028 65.2808 488.381 63.9285L486.577 64.7915C487.103 65.8925 487.391 67.0651 487.439 68.3184L489.438 68.2416ZM488.396 63.9613C487.829 62.6571 487.094 61.4146 486.194 60.234L484.603 61.446C485.41 62.5054 486.062 63.6096 486.562 64.7587L488.396 63.9613ZM486.207 60.2518C485.341 59.0605 484.522 58.0226 483.751 57.1415L482.246 58.4585C482.969 59.284 483.75 60.2728 484.59 61.4282L486.207 60.2518ZM482.113 57.3349C480.48 60.4434 478.86 63 477.256 65.0178L478.822 66.2622C480.524 64.12 482.211 61.45 483.884 58.2651L482.113 57.3349ZM477.246 65.0303C475.676 67.0715 473.948 69.0091 472.062 70.843L473.456 72.277C475.41 70.3776 477.202 68.3685 478.831 66.2497L477.246 65.0303ZM472.052 70.8529C471.225 71.6791 470.453 72 469.719 72V74C471.118 74 472.372 73.3609 473.466 72.2671L472.052 70.8529ZM469.719 72C469.123 72 468.707 71.8083 468.379 71.4473L466.899 72.7927C467.637 73.605 468.608 74 469.719 74V72ZM468.407 71.4798C468.037 71.0359 467.839 70.4949 467.839 69.8H465.839C465.839 70.9184 466.174 71.9241 466.871 72.7602L468.407 71.4798ZM467.839 69.8C467.839 68.9891 468.116 68.2227 468.731 67.4757L467.187 66.2043C466.309 67.2707 465.839 68.4775 465.839 69.8H467.839ZM468.735 67.4706L469.775 66.1906L468.223 64.9294L467.183 66.2094L468.735 67.4706ZM469.776 66.1889C472.72 62.5496 474.96 59.5296 476.482 57.1369L474.795 56.0631C473.331 58.3638 471.144 61.3171 468.221 64.9311L469.776 66.1889ZM476.488 57.1274C477.477 55.5343 478.457 53.6533 479.431 51.4904L477.607 50.6696C476.66 52.7734 475.72 54.5724 474.789 56.0726L476.488 57.1274ZM479.422 51.5091C480.442 49.3612 481.754 46.4429 483.356 42.7587L481.522 41.9613C479.924 45.637 478.622 48.5322 477.615 50.6509L479.422 51.5091ZM483.357 42.7564C483.782 41.7724 484.416 41.0664 485.265 40.5936C486.129 40.1126 487.275 39.84 488.759 39.84V37.84C487.042 37.84 485.535 38.1541 484.292 38.8464C483.034 39.5469 482.109 40.601 481.521 41.9636L483.357 42.7564ZM488.759 39.84C490.249 39.84 491.094 39.9816 491.465 40.1504L492.293 38.3296C491.491 37.9651 490.255 37.84 488.759 37.84V39.84ZM491.465 40.1504C491.633 40.2268 491.693 40.2956 491.715 40.3265C491.732 40.3516 491.759 40.4011 491.759 40.52H493.759C493.759 40.0523 493.639 39.5951 493.363 39.1935C493.091 38.7978 492.711 38.5199 492.293 38.3296L491.465 40.1504ZM491.759 40.52C491.759 40.677 491.695 41.0583 491.483 41.7459L493.395 42.3341C493.61 41.635 493.759 41.003 493.759 40.52H491.759ZM491.483 41.7459C491.29 42.3719 491.023 43.0051 490.678 43.6459L492.439 44.5941C492.841 43.8482 493.16 43.0948 493.395 42.3341L491.483 41.7459ZM490.664 43.6728C489.673 45.6563 489.119 47.4448 489.119 49H491.119C491.119 47.8886 491.525 46.4237 492.453 44.5672L490.664 43.6728ZM489.119 49C489.119 50.0216 489.458 51.0699 490.045 52.1256L491.793 51.1544C491.313 50.2901 491.119 49.5784 491.119 49H489.119ZM490.065 52.1615C490.686 53.1765 491.597 54.4161 492.784 55.8717L494.334 54.6083C493.173 53.1839 492.325 52.0235 491.772 51.1185L490.065 52.1615ZM492.763 55.846C494.453 58.0639 495.698 59.9364 496.516 61.4706L498.281 60.5294C497.393 58.8636 496.078 56.8961 494.354 54.634L492.763 55.846ZM496.536 61.5057C497.349 62.8925 497.759 64.4235 497.759 66.12H499.759C499.759 64.0832 499.262 62.2008 498.261 60.4943L496.536 61.5057ZM497.759 66.12C497.759 68.194 497.267 70.1678 496.274 72.0543L498.044 72.9857C499.184 70.8188 499.759 68.526 499.759 66.12H497.759ZM496.269 72.0632C495.335 73.8819 494.013 75.3517 492.29 76.4843L493.388 78.1557C495.398 76.8349 496.956 75.1048 498.048 72.9768L496.269 72.0632ZM492.29 76.4843C490.598 77.5957 488.659 78.16 486.439 78.16V80.16C489.019 80.16 491.346 79.4976 493.388 78.1557L492.29 76.4843Z" fill="white"/>
</svg>
